<svg width="212" height="219" viewBox="0 0 212 219" fill="none" xmlns="http://www.w3.org/2000/svg">
<path opacity="0.07" d="M116.071 78.327C115.956 78.7531 115.758 79.1521 115.488 79.5009C115.219 79.8497 114.883 80.1415 114.501 80.3595C114.119 80.5775 113.698 80.7175 113.262 80.7713C112.826 80.8251 112.384 80.7917 111.961 80.6731L88.3884 74.1935C87.9631 74.0819 87.564 73.8867 87.214 73.6193C86.864 73.3519 86.57 73.0175 86.3491 72.6354C86.1281 72.2533 85.9845 71.831 85.9265 71.3928C85.8685 70.9546 85.8973 70.5092 86.0111 70.0823L92.4542 46.3759C92.5698 45.9497 92.7681 45.5508 93.0375 45.202C93.307 44.8532 93.6423 44.5614 94.0243 44.3434C94.4063 44.1253 94.8273 43.9854 95.2633 43.9316C95.6992 43.8778 96.1414 43.9111 96.5645 44.0298C103.669 45.9847 109.712 50.6932 113.369 57.1227C117.025 63.5522 117.997 71.1778 116.071 78.327ZM80.6567 54.3972C80.7192 54.1723 80.7342 53.9368 80.7009 53.7058C80.6676 53.4747 80.5866 53.2532 80.4632 53.0555C80.3398 52.8577 80.1766 52.6881 79.9842 52.5575C79.7918 52.4268 79.5744 52.3381 79.3459 52.2969C74.061 51.1938 68.5718 51.6482 63.5375 53.6056C58.5031 55.563 54.1375 58.94 50.9648 63.3314C47.7922 67.7228 45.9473 72.9417 45.6517 78.3617C45.3561 83.7817 46.6223 89.1722 49.2984 93.8862C51.9744 98.6002 55.9466 102.437 60.7379 104.937C65.5292 107.436 70.936 108.491 76.3091 107.976C81.6823 107.461 86.7934 105.397 91.0287 102.032C95.2641 98.6675 98.4438 94.1448 100.186 89.0072C100.272 88.7835 100.308 88.544 100.294 88.3047C100.28 88.0655 100.215 87.8321 100.103 87.6203C99.9916 87.4085 99.8361 87.2233 99.6472 87.0771C99.4584 86.9309 99.2405 86.8272 99.0084 86.7729L75.68 80.4497C75.4229 80.3798 75.1821 80.2595 74.9713 80.0958C74.7606 79.9321 74.5841 79.7281 74.452 79.4956C74.3198 79.263 74.2347 79.0065 74.2014 78.7408C74.1681 78.4751 74.1874 78.2054 74.2581 77.9472L80.6567 54.3972ZM135.334 69.7024L162.795 75.8469C163.701 76.1088 164.651 76.1814 165.586 76.0604C166.521 75.9394 167.421 75.6273 168.232 75.1433C169.042 74.6592 169.746 74.0135 170.299 73.2458C170.852 72.4781 171.243 71.6048 171.448 70.6794C171.653 69.7541 171.667 68.7963 171.491 67.8651C171.314 66.9339 170.949 66.049 170.42 65.2647C169.89 64.4804 169.207 63.8134 168.411 63.3047C167.616 62.796 166.725 62.4564 165.794 62.3068L138.333 56.1623C136.595 55.8829 134.817 56.281 133.361 57.2754C131.905 58.2697 130.881 59.7854 130.498 61.513C130.116 63.2407 130.403 65.0501 131.302 66.572C132.2 68.0938 133.642 69.2135 135.334 69.7024ZM124.492 86.7282C124.095 88.5266 124.424 90.4101 125.407 91.9646C126.39 93.519 127.947 94.6172 129.735 95.0176L157.107 101.162C158.845 101.441 160.624 101.043 162.08 100.049C163.536 99.0546 164.559 97.539 164.942 95.8113C165.325 94.0837 165.038 92.2743 164.139 90.7524C163.24 89.2305 161.798 88.1108 160.107 87.6219L132.668 81.4775C130.889 81.0978 129.034 81.4384 127.503 82.4255C125.973 83.4126 124.891 84.9666 124.492 86.7505V86.7282ZM196.343 33.3273L188.923 31.6738L185.323 15.6536C184.741 13.0766 183.66 10.6404 182.141 8.48409C180.621 6.3278 178.695 4.49377 176.47 3.08685C174.246 1.67993 171.768 0.727719 169.177 0.284654C166.587 -0.158412 163.935 -0.0836407 161.373 0.504693L106.007 13.1511L50.4631 0.750471C47.8938 0.167302 45.2352 0.100385 42.6401 0.553562C40.0449 1.00674 37.5644 1.97108 35.3409 3.39119C33.1175 4.81131 31.1949 6.65921 29.6837 8.82875C28.1725 10.9983 27.1024 13.4467 26.5349 16.0334L23.0023 32.0313L15.5816 33.7294C13.0196 34.3126 10.5968 35.3978 8.45193 36.9229C6.30702 38.4481 4.48194 40.3833 3.08099 42.618C1.68003 44.8527 0.730659 47.3432 0.287107 49.947C-0.156445 52.5509 -0.0854804 55.2171 0.495947 57.7934L9.00525 95.5315L0.651469 133.292C0.0814083 135.871 0.0223512 138.538 0.477673 141.14C0.932995 143.742 1.89377 146.229 3.30508 148.457C4.7164 150.686 6.55059 152.613 8.70281 154.128C10.855 155.644 13.2831 156.718 15.8482 157.289L23.2689 158.942L26.8681 174.918C27.448 177.495 28.5271 179.931 30.0436 182.088C31.5601 184.245 33.4845 186.081 35.7066 187.489C37.9287 188.898 40.4051 189.853 42.9943 190.299C45.5835 190.745 48.2347 190.674 50.7964 190.089L113.894 175.722C111.916 169.048 111.163 162.067 111.672 155.122L23.6022 135.459L48.2414 23.8313L188.589 55.1122L178.058 102.793C187.322 104.334 196.058 108.174 203.475 113.965C203.836 114.221 204.265 114.364 204.707 114.374C205.149 114.384 205.584 114.261 205.956 114.021C206.328 113.781 206.621 113.435 206.796 113.027C206.972 112.619 207.022 112.168 206.941 111.731L203.186 95.107L211.518 57.3465C212.091 54.7673 212.154 52.0996 211.702 49.496C211.249 46.8925 210.291 44.4042 208.882 42.1734C207.472 39.9426 205.64 38.0131 203.488 36.4952C201.337 34.9773 198.909 33.9008 196.343 33.3273ZM43.7979 120.668C43.4006 122.466 43.7298 124.35 44.7131 125.904C45.6963 127.459 47.2531 128.557 49.0412 128.957L114.005 143.503C115.326 138.969 117.199 134.616 119.582 130.544L51.9295 115.305C50.1449 114.941 48.2896 115.301 46.7669 116.305C45.2442 117.309 44.1772 118.877 43.7979 120.668ZM103.074 107.932C102.675 109.715 102.993 111.585 103.958 113.133C104.924 114.682 106.459 115.784 108.229 116.199L127.002 120.4C127.447 119.931 127.869 119.439 128.313 118.97C131.956 115.269 136.082 112.082 140.577 109.496C139.984 109.14 139.339 108.876 138.667 108.714L111.206 102.592C109.417 102.193 107.545 102.524 105.999 103.512C104.453 104.501 103.361 106.067 102.963 107.865L103.074 107.932ZM198.365 129.605C206.223 137.53 210.636 148.265 210.636 159.456C210.636 170.648 206.223 181.383 198.365 189.307C191.823 195.884 183.306 200.106 174.135 201.318C164.964 202.53 155.652 200.664 147.643 196.01L127.958 215.806C126.959 216.816 125.771 217.617 124.464 218.165C123.157 218.713 121.755 218.997 120.339 219C118.922 219.003 117.519 218.726 116.209 218.183C114.9 217.641 113.709 216.845 112.705 215.84C111.702 214.835 110.905 213.641 110.36 212.326C109.815 211.012 109.533 209.602 109.53 208.178C109.524 205.301 110.654 202.54 112.672 200.501L132.335 180.727C127.097 171.856 125.272 161.363 127.204 151.231C129.136 141.099 134.692 132.029 142.82 125.736C150.949 119.442 161.089 116.361 171.323 117.074C181.557 117.787 191.177 122.245 198.365 129.605ZM191.567 159.546C191.55 154.233 189.703 149.091 186.34 144.994C182.977 140.897 178.306 138.099 173.122 137.077C167.939 136.055 162.563 136.871 157.91 139.387C153.258 141.903 149.616 145.963 147.606 150.876C145.596 155.788 145.341 161.25 146.885 166.33C148.429 171.411 151.676 175.796 156.074 178.739C160.472 181.682 165.748 183.001 171.004 182.471C176.261 181.942 181.172 179.596 184.901 175.834C187.024 173.694 188.706 171.154 189.85 168.359C190.994 165.563 191.577 162.568 191.567 159.546Z" fill="black"/>
</svg>
