<svg width="196" height="186" viewBox="0 0 196 186" fill="none" xmlns="http://www.w3.org/2000/svg">
<g opacity="0.07">
<path d="M22.3697 92.6394C22.9853 92.8446 23.3956 92.8446 24.0112 92.8446C26.4734 92.8446 28.7304 91.2031 29.5511 88.7409C33.0392 76.8403 39.8103 66.1708 48.6331 57.5532C50.8901 55.2962 51.0953 51.808 48.8383 49.551C46.5813 47.294 43.0932 47.0888 40.8362 49.3459C30.3718 59.3998 22.7801 71.916 18.6764 85.6632C17.6505 88.5358 19.292 91.6135 22.3697 92.6394Z" fill="black"/>
<path d="M166.201 88.7437C167.022 91.2059 169.279 92.8474 171.741 92.8474C172.357 92.8474 172.767 92.8474 173.382 92.6422C176.46 91.8215 178.102 88.5385 177.281 85.4608C173.177 71.7136 165.38 59.1974 155.121 49.1435C152.864 46.8865 149.171 47.0916 147.119 49.3486C144.862 51.6057 145.067 55.2989 147.324 57.3508C156.147 66.1736 162.713 76.8431 166.201 88.7437Z" fill="black"/>
<path d="M116.139 172.253C104.239 175.331 91.5172 175.331 79.4114 172.048C76.3337 171.228 73.2559 173.074 72.4352 176.152C71.6145 179.23 73.4611 182.307 76.5389 183.128C83.7203 184.975 90.9017 186.001 98.2882 186.001C105.264 186.001 112.241 185.18 119.012 183.333C122.089 182.513 123.936 179.435 123.115 176.357C122.5 173.279 119.217 171.433 116.139 172.253Z" fill="black"/>
<path d="M1.43998 120.544C1.02961 120.339 0.414062 120.749 0.414062 121.159V160.349C0.414062 161.58 1.02961 162.606 2.26071 163.222L30.9863 176.354C31.3967 176.559 32.0122 176.148 32.0122 175.738V134.907C32.0122 134.701 31.807 134.291 31.6018 134.291L1.43998 120.544Z" fill="black"/>
<path d="M65.0481 112.951L37.1433 100.23C36.3225 99.8198 35.5018 99.8198 34.6811 100.23L6.57104 112.951C5.95549 113.157 5.95549 113.977 6.57104 114.388L35.5018 127.519C35.707 127.519 35.9122 127.519 36.1174 127.519L65.0481 114.388C65.6637 114.183 65.6637 113.362 65.0481 112.951Z" fill="black"/>
<path d="M70.1737 120.545L40.217 134.292C40.0118 134.498 39.8066 134.703 39.8066 134.908V175.534C39.8066 176.15 40.4222 176.56 40.8326 176.15L69.5581 163.018C70.5841 162.608 71.4048 161.377 71.4048 160.145V121.161C71.1996 120.545 70.5841 120.34 70.1737 120.545Z" fill="black"/>
<path d="M125.577 120.544C125.166 120.339 124.551 120.749 124.551 121.159V160.349C124.551 161.58 125.166 162.606 126.397 163.222L155.123 176.354C155.533 176.559 156.149 176.148 156.149 175.738V134.907C156.149 134.701 155.944 134.291 155.739 134.291L125.577 120.544Z" fill="black"/>
<path d="M189.183 112.951L161.278 100.23C160.457 99.8198 159.637 99.8198 158.816 100.23L130.706 112.951C130.09 113.157 130.09 113.977 130.706 114.388L159.637 127.519C159.842 127.519 160.047 127.519 160.252 127.519L189.183 114.388C189.798 114.183 189.798 113.362 189.183 112.951Z" fill="black"/>
<path d="M194.31 120.545L164.354 134.292C164.149 134.498 163.943 134.703 163.943 134.908V175.534C163.943 176.15 164.559 176.56 164.969 176.15L193.695 163.018C194.721 162.608 195.542 161.377 195.542 160.145V121.161C195.336 120.545 194.721 120.34 194.31 120.545Z" fill="black"/>
<path d="M64.2274 63.2989L92.953 76.4306C93.3634 76.6358 93.9789 76.2254 93.9789 75.815V35.1889C93.9789 34.9837 93.7737 34.5733 93.5685 34.5733L63.6119 20.8261C63.2015 20.6209 62.5859 21.0312 62.5859 21.4416V60.6315C62.5859 61.6574 63.2015 62.6833 64.2274 63.2989Z" fill="black"/>
<path d="M97.4626 27.8023C97.6678 27.8023 97.873 27.8023 98.0782 27.8023L127.009 14.6706C127.625 14.4654 127.625 13.6447 127.009 13.2343L99.1041 0.307774C98.2834 -0.102591 97.4626 -0.102591 96.6419 0.307774L68.7371 13.0291C68.1215 13.2343 68.1215 14.055 68.7371 14.4654L97.4626 27.8023Z" fill="black"/>
<path d="M101.775 35.1911V75.8172C101.775 76.4328 102.391 76.8432 102.801 76.4328L131.527 63.3011C132.553 62.8907 133.374 61.6596 133.374 60.4285V21.4438C133.374 20.8283 132.758 20.4179 132.348 20.8283L102.391 34.5755C101.775 34.5755 101.775 34.7807 101.775 35.1911Z" fill="black"/>
</g>
</svg>
