<svg width="199" height="183" viewBox="0 0 199 183" fill="none" xmlns="http://www.w3.org/2000/svg">
<g opacity="0.07">
<path d="M61.752 99.1262C65.9631 99.1262 69.377 95.7124 69.377 91.5012C69.377 87.2901 65.9631 83.8762 61.752 83.8762C57.5408 83.8762 54.127 87.2901 54.127 91.5012C54.127 95.7124 57.5408 99.1262 61.752 99.1262Z" fill="black"/>
<path d="M130.375 30.5V7.62501C130.375 3.41601 126.959 0 122.75 0H77C72.791 0 69.375 3.41601 69.375 7.62501V30.5H130.375Z" fill="black"/>
<path d="M76.9981 129.625H46.4981C42.2929 129.625 38.873 133.045 38.873 137.25V144.875H84.6231V137.25C84.6231 133.045 81.2033 129.625 76.9981 129.625Z" fill="black"/>
<path d="M191.375 45.7488H8.37501C4.16601 45.7488 0.75 49.1648 0.75 53.3738V175.374C0.75 179.583 4.16601 182.999 8.37501 182.999H191.375C195.584 182.999 199 179.583 199 175.374V53.3738C199 49.1648 195.584 45.7488 191.375 45.7488ZM99.8752 152.499C99.8752 156.708 96.4592 160.124 92.2501 160.124H31.25C27.041 160.124 23.625 156.708 23.625 152.499V137.249C23.625 124.633 33.8845 114.374 46.5001 114.374H61.7501C49.1345 114.374 38.8751 104.114 38.8751 91.4988C38.8751 78.8833 49.1345 68.6238 61.7501 68.6238C74.3657 68.6238 84.6251 78.8833 84.6251 91.4988C84.6251 104.114 74.3657 114.374 61.7501 114.374H77.0001C89.6157 114.374 99.8752 124.633 99.8752 137.249V152.499ZM168.5 137.249H115.125C110.916 137.249 107.5 133.833 107.5 129.624C107.5 125.415 110.916 121.999 115.125 121.999H168.5C172.709 121.999 176.125 125.415 176.125 129.624C176.125 133.833 172.709 137.249 168.5 137.249ZM168.5 114.374H115.125C110.916 114.374 107.5 110.958 107.5 106.749C107.5 102.54 110.916 99.1239 115.125 99.1239H168.5C172.709 99.1239 176.125 102.54 176.125 106.749C176.125 110.958 172.709 114.374 168.5 114.374ZM168.5 91.4988H115.125C110.916 91.4988 107.5 88.0828 107.5 83.8738C107.5 79.6648 110.916 76.2488 115.125 76.2488H168.5C172.709 76.2488 176.125 79.6648 176.125 83.8738C176.125 88.0828 172.709 91.4988 168.5 91.4988Z" fill="black"/>
</g>
</svg>
