<svg width="179" height="179" viewBox="0 0 179 179" fill="none" xmlns="http://www.w3.org/2000/svg">
<g opacity="0.1" clip-path="url(#clip0_397_330)">
<path fill-rule="evenodd" clip-rule="evenodd" d="M117.21 73.9521C128.308 65.9758 144.629 54.2334 147.21 19.5074H148.785C151.079 19.5208 153.284 18.6236 154.917 17.0128C156.55 15.402 157.478 13.2091 157.495 10.9154V8.59202C157.478 6.29835 156.55 4.10549 154.917 2.49467C153.284 0.883857 151.079 -0.0133205 148.785 2.51023e-05H33.7886C32.6513 -0.00894257 31.5234 0.206186 30.4693 0.633128C29.4152 1.06007 28.4555 1.69046 27.645 2.48831C26.8345 3.28616 26.1892 4.23583 25.7457 5.28311C25.3023 6.33039 25.0694 7.45476 25.0605 8.59202V10.9011C25.0785 13.1948 26.0057 15.3877 27.6387 16.9985C29.2717 18.6093 31.477 19.5065 33.7707 19.4931H37.6299C40.2111 54.2191 56.5216 65.9579 67.6303 73.9378C74.7903 79.0715 78.5064 82.0071 78.5064 87.5024C78.5064 92.9977 74.7939 95.944 67.6625 101.078C56.1421 109.351 39.0225 121.677 37.433 159.493H33.7886C32.6501 159.484 31.5211 159.699 30.466 160.127C29.411 160.555 28.4507 161.187 27.64 161.986C26.8293 162.785 26.1842 163.737 25.7416 164.786C25.299 165.835 25.0676 166.96 25.0605 168.099V170.408C25.0694 171.545 25.3023 172.67 25.7457 173.717C26.1892 174.764 26.8345 175.714 27.645 176.512C28.4555 177.31 29.4152 177.94 30.4693 178.367C31.5234 178.794 32.6513 179.009 33.7886 179H148.785C151.079 179.013 153.284 178.116 154.917 176.505C156.55 174.895 157.478 172.702 157.495 170.408V168.099C157.478 165.805 156.55 163.612 154.917 162.002C153.284 160.391 151.079 159.494 148.785 159.507H147.439C145.85 121.677 128.73 109.355 117.21 101.078C110.05 95.944 106.334 93.0084 106.334 87.5131C106.334 82.0178 110.064 79.0858 117.21 73.9521ZM112.491 107.493C123.915 115.698 137.974 125.819 139.416 159.493H45.4415C46.8735 125.816 60.9429 115.695 72.3667 107.49C79.6591 102.252 86.5506 97.3044 86.5506 87.5131C86.5506 77.7218 79.6627 72.7778 72.3667 67.5367C61.4047 59.6607 48.0227 50.0305 45.6706 19.5039H139.187C136.85 50.0341 123.435 59.6643 112.491 67.5367C105.199 72.7743 98.3073 77.7218 98.3073 87.5131C98.3073 97.3044 105.195 102.252 112.491 107.49V107.493ZM127.019 46.3467C115.769 42.1865 103.861 40.092 91.8669 40.164C80.205 40.0971 68.6211 42.0695 57.6385 45.9923C62.0073 53.2006 67.9949 59.2924 75.1268 63.7849C82.6806 69.2122 91.2368 75.3626 91.2368 87.5131C91.2368 87.6026 91.2368 87.6885 91.2368 87.778H93.6068C93.6068 87.6885 93.6068 87.6026 93.6068 87.5131C93.6068 75.359 102.17 69.2086 109.717 63.7849C116.734 59.3599 122.65 53.3952 127.019 46.3431V46.3467ZM50.6253 153.077C50.5 154.244 50.389 155.433 50.2995 156.657H134.555C134.537 156.385 134.508 156.131 134.49 155.866C130.858 147.946 125.092 141.195 117.838 136.369C110.583 131.543 102.128 128.833 93.4201 128.544C84.712 128.254 76.0954 130.396 68.5366 134.729C60.9777 139.063 54.7755 145.416 50.6253 153.077Z" fill="black"/>
</g>
<defs>
<clipPath id="clip0_397_330">
<rect width="179" height="179" fill="white"/>
</clipPath>
</defs>
</svg>
