<svg width="191" height="191" viewBox="0 0 191 191" fill="none" xmlns="http://www.w3.org/2000/svg">
<g opacity="0.07">
<path d="M47.7512 82.4762C59.7381 82.4762 69.4554 72.7589 69.4554 60.7719C69.4554 48.785 59.7381 39.0676 47.7512 39.0676C35.7642 39.0676 26.0469 48.785 26.0469 60.7719C26.0469 72.7589 35.7642 82.4762 47.7512 82.4762Z" fill="black"/>
<path d="M73.7973 99.8378C73.7952 96.8645 73.2785 93.914 72.2699 91.117L101.282 71.6406C101.761 71.3263 102.172 70.9204 102.493 70.4463C102.814 69.9722 103.038 69.4393 103.152 68.8783C103.266 68.3173 103.269 67.7393 103.158 67.1775C103.048 66.6157 102.828 66.0812 102.51 65.6048C102.193 65.1285 101.784 64.7197 101.308 64.4019C100.832 64.0841 100.297 63.8637 99.7356 63.7533C99.1739 63.6429 98.5958 63.6448 98.0348 63.7587C97.4737 63.8726 96.9407 64.0964 96.4665 64.4172L67.9359 83.4376L67.929 83.4272C62.4171 88.3754 55.2792 91.1258 47.8722 91.1557C40.4651 91.1856 33.3053 88.4929 27.7536 83.5894C23.8471 88.4645 21.7148 94.5232 21.707 100.77V117.201C21.7097 119.503 22.6252 121.71 24.2528 123.337C25.8803 124.965 28.087 125.88 30.3887 125.883H65.1156C67.4173 125.88 69.624 124.965 71.2516 123.337C72.8792 121.71 73.7947 119.503 73.7973 117.201V99.8378Z" fill="black"/>
<path d="M177.977 0H13.0245C9.57188 0.00376871 6.26173 1.377 3.82034 3.81839C1.37895 6.25978 0.00572184 9.56993 0.00195312 13.0226V91.158C0.00572184 94.6106 1.37895 97.9208 3.82034 100.362C6.26173 102.804 9.57188 104.177 13.0245 104.181V100.772C13.0436 92.5573 15.8445 84.5909 20.9708 78.1715L22.02 76.8587C19.3865 72.66 17.8203 67.8808 17.4579 62.9379C17.0955 57.995 17.9478 53.0385 19.9406 48.5006C21.9335 43.9628 25.0062 39.9814 28.8909 36.9036C32.7757 33.8259 37.3544 31.7453 42.2278 30.8432C47.1012 29.9412 52.1212 30.2452 56.8502 31.7286C61.5792 33.212 65.8734 35.8299 69.3584 39.3539C72.8434 42.8779 75.4133 47.2009 76.844 51.9461C78.2748 56.6913 78.5229 61.7144 77.5667 66.5775L91.6496 57.1963C94.5235 55.2808 98.0408 54.5854 101.427 55.2632C104.814 55.9409 107.793 57.9363 109.708 60.8103C111.624 63.6842 112.319 67.2014 111.641 70.5881C110.964 73.9748 108.968 76.9535 106.094 78.869L82.1285 94.9565C82.3617 96.5738 82.4786 98.2057 82.4782 99.8397V104.181H177.977C181.43 104.177 184.74 102.804 187.181 100.362C189.623 97.9208 190.996 94.6106 191 91.158V13.0226C190.996 9.56993 189.623 6.25978 187.181 3.81839C184.74 1.377 181.43 0.00376871 177.977 0ZM112.864 47.7494H104.183C103.031 47.7494 101.927 47.2921 101.113 46.478C100.299 45.664 99.8417 44.5598 99.8417 43.4086C99.8417 42.2573 100.299 41.1532 101.113 40.3391C101.927 39.5251 103.031 39.0677 104.183 39.0677H112.864C114.016 39.0677 115.12 39.5251 115.934 40.3391C116.748 41.1532 117.205 42.2573 117.205 43.4086C117.205 44.5598 116.748 45.664 115.934 46.478C115.12 47.2921 114.016 47.7494 112.864 47.7494ZM112.864 26.0451H104.183C103.031 26.0451 101.927 25.5878 101.113 24.7737C100.299 23.9597 99.8417 22.8556 99.8417 21.7043C99.8417 20.553 100.299 19.4489 101.113 18.6348C101.927 17.8208 103.031 17.3634 104.183 17.3634H112.864C114.016 17.3634 115.12 17.8208 115.934 18.6348C116.748 19.4489 117.205 20.553 117.205 21.7043C117.205 22.8556 116.748 23.9597 115.934 24.7737C115.12 25.5878 114.016 26.0451 112.864 26.0451ZM169.295 69.4537H130.228C129.076 69.4537 127.972 68.9964 127.158 68.1823C126.344 67.3682 125.887 66.2641 125.887 65.1129C125.887 63.9616 126.344 62.8575 127.158 62.0434C127.972 61.2293 129.076 60.772 130.228 60.772H169.295C170.447 60.772 171.551 61.2293 172.365 62.0434C173.179 62.8575 173.636 63.9616 173.636 65.1129C173.636 66.2641 173.179 67.3682 172.365 68.1823C171.551 68.9964 170.447 69.4537 169.295 69.4537ZM169.295 47.7494H130.228C129.076 47.7494 127.972 47.2921 127.158 46.478C126.344 45.664 125.887 44.5598 125.887 43.4086C125.887 42.2573 126.344 41.1532 127.158 40.3391C127.972 39.5251 129.076 39.0677 130.228 39.0677H169.295C170.447 39.0677 171.551 39.5251 172.365 40.3391C173.179 41.1532 173.636 42.2573 173.636 43.4086C173.636 44.5598 173.179 45.664 172.365 46.478C171.551 47.2921 170.447 47.7494 169.295 47.7494ZM169.295 26.0451H130.228C129.076 26.0451 127.972 25.5878 127.158 24.7737C126.344 23.9597 125.887 22.8556 125.887 21.7043C125.887 20.553 126.344 19.4489 127.158 18.6348C127.972 17.8208 129.076 17.3634 130.228 17.3634H169.295C170.447 17.3634 171.551 17.8208 172.365 18.6348C173.179 19.4489 173.636 20.553 173.636 21.7043C173.636 22.8556 173.179 23.9597 172.365 24.7737C171.551 25.5878 170.447 26.0451 169.295 26.0451Z" fill="black"/>
<path d="M55.5371 164.325C58.0081 161.914 59.7044 158.821 60.4091 155.441C61.1139 152.062 60.7951 148.549 59.4936 145.351C58.1921 142.153 55.9669 139.416 53.1023 137.489C50.2377 135.563 46.8637 134.533 43.4113 134.533C39.959 134.533 36.585 135.563 33.7203 137.489C30.8557 139.416 28.6305 142.153 27.329 145.351C26.0275 148.549 25.7088 152.062 26.4135 155.441C27.1183 158.821 28.8145 161.914 31.2856 164.325C28.3376 166.31 25.9225 168.989 24.2523 172.127C22.5822 175.264 21.7081 178.764 21.707 182.318V186.659C21.7069 187.229 21.8191 187.793 22.0372 188.32C22.2553 188.847 22.575 189.325 22.9781 189.728C23.3812 190.131 23.8598 190.451 24.3865 190.669C24.9133 190.887 25.4778 191 26.0479 190.999H60.7747C61.3448 191 61.9094 190.887 62.4361 190.669C62.9628 190.451 63.4414 190.131 63.8445 189.728C64.2476 189.325 64.5674 188.847 64.7855 188.32C65.0036 187.793 65.1157 187.229 65.1156 186.659V182.318C65.1145 178.764 64.2405 175.264 62.5703 172.127C60.9001 168.989 58.485 166.31 55.5371 164.325ZM43.4113 160.613C41.6942 160.613 40.0157 160.104 38.588 159.15C37.1603 158.196 36.0476 156.84 35.3905 155.254C34.7334 153.668 34.5614 151.922 34.8964 150.238C35.2314 148.554 36.0583 147.007 37.2724 145.793C38.4866 144.579 40.0335 143.752 41.7176 143.417C43.4017 143.082 45.1473 143.254 46.7337 143.911C48.32 144.568 49.6759 145.681 50.6299 147.108C51.5839 148.536 52.093 150.215 52.093 151.932C52.0904 154.233 51.1749 156.44 49.5473 158.068C47.9197 159.695 45.713 160.611 43.4113 160.613Z" fill="black"/>
<path d="M107.627 164.325C110.098 161.914 111.794 158.821 112.499 155.441C113.204 152.062 112.885 148.549 111.583 145.351C110.282 142.153 108.057 139.416 105.192 137.489C102.328 135.563 98.9535 134.533 95.5012 134.533C92.0488 134.533 88.6748 135.563 85.8102 137.489C82.9456 139.416 80.7204 142.153 79.4189 145.351C78.1173 148.549 77.7986 152.062 78.5034 155.441C79.2081 158.821 80.9044 161.914 83.3754 164.325C80.4275 166.31 78.0123 168.989 76.3422 172.127C74.672 175.264 73.798 178.764 73.7969 182.318V186.659C73.7967 187.229 73.9089 187.793 74.127 188.32C74.3451 188.847 74.6648 189.325 75.0679 189.728C75.4711 190.131 75.9497 190.451 76.4764 190.669C77.0031 190.887 77.5676 191 78.1377 190.999H112.865C113.435 191 113.999 190.887 114.526 190.669C115.053 190.451 115.531 190.131 115.934 189.728C116.337 189.325 116.657 188.847 116.875 188.32C117.093 187.793 117.206 187.229 117.205 186.659V182.318C117.204 178.764 116.33 175.264 114.66 172.127C112.99 168.989 110.575 166.31 107.627 164.325ZM95.5012 160.613C93.7841 160.613 92.1056 160.104 90.6779 159.15C89.2502 158.196 88.1374 156.84 87.4803 155.254C86.8232 153.668 86.6513 151.922 86.9863 150.238C87.3212 148.554 88.1481 147.007 89.3623 145.793C90.5764 144.579 92.1234 143.752 93.8074 143.417C95.4915 143.082 97.2371 143.254 98.8235 143.911C100.41 144.568 101.766 145.681 102.72 147.108C103.674 148.536 104.183 150.215 104.183 151.932C104.18 154.233 103.265 156.44 101.637 158.068C100.01 159.695 97.8029 160.611 95.5012 160.613Z" fill="black"/>
<path d="M159.719 164.325C162.19 161.914 163.886 158.821 164.591 155.441C165.296 152.062 164.977 148.549 163.675 145.351C162.374 142.153 160.149 139.416 157.284 137.489C154.419 135.563 151.045 134.533 147.593 134.533C144.141 134.533 140.767 135.563 137.902 137.489C135.037 139.416 132.812 142.153 131.511 145.351C130.209 148.549 129.89 152.062 130.595 155.441C131.3 158.821 132.996 161.914 135.467 164.325C132.519 166.31 130.104 168.989 128.434 172.127C126.764 175.264 125.89 178.764 125.889 182.318V186.659C125.889 187.229 126.001 187.793 126.219 188.32C126.437 188.847 126.757 189.325 127.16 189.728C127.563 190.131 128.041 190.451 128.568 190.669C129.095 190.887 129.659 191 130.23 190.999H164.956C165.526 191 166.091 190.887 166.618 190.669C167.144 190.451 167.623 190.131 168.026 189.728C168.429 189.325 168.749 188.847 168.967 188.32C169.185 187.793 169.297 187.229 169.297 186.659V182.318C169.296 178.764 168.422 175.264 166.752 172.127C165.082 168.989 162.667 166.31 159.719 164.325ZM147.593 160.613C145.876 160.613 144.197 160.104 142.77 159.15C141.342 158.196 140.229 156.84 139.572 155.254C138.915 153.668 138.743 151.922 139.078 150.238C139.413 148.554 140.24 147.007 141.454 145.793C142.668 144.579 144.215 143.752 145.899 143.417C147.583 143.082 149.329 143.254 150.915 143.911C152.502 144.568 153.858 145.681 154.812 147.108C155.766 148.536 156.275 150.215 156.275 151.932C156.272 154.233 155.357 156.44 153.729 158.068C152.101 159.695 149.895 160.611 147.593 160.613Z" fill="black"/>
</g>
</svg>
