<svg width="181" height="180" viewBox="0 0 181 180" fill="none" xmlns="http://www.w3.org/2000/svg">
<g opacity="0.15">
<path d="M62.3913 20.9476C62.3913 9.39567 52.9927 0 41.4437 0C29.8947 0 20.4961 9.39567 20.4961 20.9476C20.4961 32.4966 29.8947 41.8923 41.4437 41.8923C52.9927 41.8923 62.3913 32.4966 62.3913 20.9476ZM32.4963 20.9476C32.4963 16.014 36.51 12.0002 41.4437 12.0002C46.3774 12.0002 50.3911 16.014 50.3911 20.9476C50.3911 25.8784 46.3773 29.8921 41.4437 29.8921C36.5101 29.8921 32.4963 25.8784 32.4963 20.9476Z" fill="white"/>
<path d="M0 87.5832C0 90.8968 2.68366 93.5833 6.0001 93.5833H76.8762C80.1927 93.5833 82.8763 90.8968 82.8763 87.5832C82.8763 64.9568 64.4659 46.5464 41.8425 46.5464H41.0339C18.4105 46.5464 0 64.9569 0 87.5832ZM41.0339 58.5466H41.8425C55.7939 58.5466 67.4836 68.4404 70.2551 81.5832H12.6213C15.3928 68.4403 27.0825 58.5466 41.0339 58.5466Z" fill="white"/>
<path d="M138.561 86.416C127.012 86.416 117.613 95.8117 117.613 107.364C117.613 118.913 127.012 128.308 138.561 128.308C150.11 128.308 159.508 118.913 159.508 107.364C159.508 95.8116 150.11 86.416 138.561 86.416ZM138.561 116.308C133.627 116.308 129.613 112.294 129.613 107.364C129.613 102.43 133.627 98.4162 138.561 98.4162C143.495 98.4162 147.508 102.43 147.508 107.364C147.508 112.294 143.495 116.308 138.561 116.308Z" fill="white"/>
<path d="M138.968 132.962H138.159C115.535 132.962 97.125 151.373 97.125 173.999C97.125 177.313 99.8087 179.999 103.125 179.999H174.001C177.318 179.999 180.001 177.313 180.001 173.999C180.001 151.373 161.591 132.962 138.968 132.962ZM109.746 167.999C112.518 154.856 124.208 144.963 138.159 144.963H138.968C152.919 144.963 164.609 154.856 167.38 167.999H109.746Z" fill="white"/>
<path d="M126.003 14.9402H90.0021C86.6856 14.9402 84.002 17.6267 84.002 20.9403C84.002 24.2538 86.6856 26.9404 90.0021 26.9404H126.003C135.929 26.9404 144.003 35.0147 144.003 44.9407V70.0661C144.003 73.3796 146.687 76.0662 150.003 76.0662C153.319 76.0662 156.003 73.3796 156.003 70.0661V44.9407C156.003 28.3994 142.544 14.9402 126.003 14.9402Z" fill="white"/>
<path d="M54.0005 153.051C44.0745 153.051 36.0002 144.976 36.0002 135.05V109.925C36.0002 106.611 33.3165 103.925 30.0001 103.925C26.6837 103.925 24 106.611 24 109.925V135.05C24 151.592 37.4592 165.051 54.0005 165.051H81.4814C84.7978 165.051 87.4815 162.364 87.4815 159.051C87.4815 155.737 84.7978 153.051 81.4814 153.051H54.0005Z" fill="white"/>
</g>
</svg>
