<svg width="201" height="269" viewBox="0 0 201 269" fill="none" xmlns="http://www.w3.org/2000/svg">
<g style="mix-blend-mode:soft-light" opacity="0.35">
<path d="M15.7161 174.276C25.2545 163.586 34.8614 162.741 37.7613 162.066C46.6663 159.987 57.448 160.868 63.2062 159.074C63.8843 164.725 80.2903 183.285 91.0453 194.941L95.7059 176.958C92.2023 174.888 91.4349 170.329 91.4349 166.54H109.114C109.114 170.299 108.35 174.817 104.92 176.905L109.504 194.926C120.264 183.285 136.676 164.719 137.346 159.074C143.104 160.868 153.883 159.993 162.79 162.063C165.771 162.759 175.949 163.666 185.796 175.403C190.859 181.438 195.841 190.307 199.704 203.596C200.757 207.239 200.772 211.061 199.909 214.645C199.502 216.314 198.984 217.926 198.193 219.416C188.887 237.021 139.93 242.455 100.328 242.455C100.307 242.455 100.286 242.455 100.268 242.455C100.26 242.455 100.224 242.455 100.212 242.455C93.2224 242.455 85.9385 242.279 78.6337 241.905L74.7998 231.367C79.4427 225.603 82.2266 218.289 82.2266 210.333C82.2266 191.806 67.159 176.729 48.6234 176.729C30.0966 176.729 15.026 191.803 15.026 210.333C15.026 218.289 17.8159 225.606 22.4528 231.367L21.9204 232.818C12.3998 229.454 5.32695 225.064 2.34377 219.413C1.61804 218.039 1.12433 216.594 0.713882 215.1C-0.246811 211.4 -0.267624 207.397 0.832855 203.605C4.94328 189.462 10.3059 180.305 15.7161 174.276Z" fill="white"/>
<path d="M46.7033 42.408L30.6541 35.4601C26.4604 33.6428 26.4604 30.6775 30.6541 28.8572L92.6438 2.02339C96.8375 0.203141 103.702 0.203141 107.902 2.02339L169.885 28.8542C174.085 30.6745 174.085 33.6398 169.885 35.4571L165.189 37.4915L165.582 40.6472C167.381 40.9565 168.755 42.518 168.755 44.4067C168.755 46.105 167.649 47.5475 166.111 48.0323L168.96 87.9767C169.082 89.6423 168.746 92.3042 168.217 93.8865L165.9 100.831C165.373 102.42 164.514 102.42 163.984 100.831L161.668 93.8865C161.138 92.3042 160.802 89.6423 160.924 87.9767L163.773 48.0323C162.247 47.5415 161.132 46.1079 161.132 44.4067C161.132 42.521 162.503 40.9565 164.306 40.6472L164.672 37.7146L153.827 42.408L148.512 44.7071V65.2087L148.495 65.2146C149.051 68.29 149.449 71.4189 149.69 74.2772C150.618 78.0396 151.153 81.9508 151.153 85.9958H151.058C151.058 86.0345 151.061 86.0612 151.07 86.091C151.133 86.0969 151.18 86.1029 151.246 86.1118C154.737 86.7215 156.335 94.1869 154.8 102.788C153.393 110.691 149.842 116.794 146.537 117.261C142.362 128.513 135.738 139.455 127.544 147.438C122.919 151.974 117.779 155.555 112.307 157.735C108.538 159.219 104.612 160.055 100.564 160.055C96.5341 160.055 92.6051 159.231 88.8397 157.735C83.1737 155.475 77.8676 151.724 73.1118 146.971C65.1199 138.997 58.6479 128.224 54.5643 117.169C51.4026 116.241 48.0952 110.334 46.7479 102.783C45.2964 94.5914 46.6676 87.4502 49.8263 86.2665C49.7132 84.2618 49.6389 82.2363 49.6478 80.1722C49.6657 73.8846 50.4985 68.0848 52.0005 62.7727V44.7071L46.7033 42.408Z" fill="white"/>
<path d="M77.6669 259.612C78.0239 260.608 77.7026 261.227 76.9412 261.227C76.7271 261.227 76.4743 261.176 76.1917 261.072L66.9417 257.631C66.6384 257.515 66.3201 257.465 65.9989 257.465C64.9639 257.465 63.9199 258.018 63.4053 258.916L58.5335 267.5C58.2123 268.062 57.8345 268.341 57.4806 268.341C57.0791 268.341 56.7103 267.999 56.4664 267.33L52.3441 256.01L50.4881 250.909L48.6292 245.811L46.7733 250.909L44.9203 256.01L40.8009 267.33C40.557 267.999 40.1823 268.341 39.7867 268.341C39.4298 268.341 39.055 268.062 38.7338 267.503L33.862 258.919C33.3504 258.018 32.3005 257.468 31.2684 257.468C30.9502 257.468 30.626 257.518 30.3256 257.634L21.0756 261.075C20.7931 261.179 20.5432 261.23 20.3291 261.23C19.5647 261.23 19.2435 260.611 19.6063 259.615L27.9224 236.764C31.4855 239.562 35.6227 241.662 40.1287 242.843C41.4315 243.188 42.7699 243.444 44.1262 243.628C45.3813 243.798 46.6543 243.893 47.9451 243.923C48.1741 243.929 48.4032 243.938 48.6292 243.938C48.8642 243.938 49.0902 243.929 49.3222 243.923C50.613 243.893 51.886 243.798 53.1382 243.628C54.4974 243.444 55.8299 243.191 57.1356 242.843C61.6476 241.665 65.7788 239.562 69.345 236.764L77.6669 259.612Z" fill="white"/>
<path d="M69.469 226.902C68.654 227.928 67.7647 228.892 66.804 229.787C64.8678 231.596 62.6609 233.127 60.2487 234.299C58.8717 234.968 57.4351 235.513 55.942 235.941C54.6423 236.31 53.3038 236.583 51.9327 236.75C50.853 236.884 49.7496 236.961 48.6313 236.961C47.5159 236.961 46.4214 236.884 45.3387 236.75C43.9646 236.58 42.6292 236.31 41.3294 235.941C39.8364 235.513 38.3909 234.968 37.0197 234.299C34.6076 233.127 32.4007 231.599 30.4615 229.787C29.5097 228.892 28.6174 227.928 27.7995 226.902C26.9072 225.778 26.1012 224.579 25.3874 223.318C23.237 219.475 22.0056 215.053 22.0056 210.339C22.0056 195.634 33.9295 183.713 48.6283 183.713C63.336 183.713 75.2539 195.634 75.2539 210.339C75.2539 215.053 74.0285 219.475 71.8751 223.318C71.1702 224.579 70.3612 225.778 69.469 226.902ZM64.1004 206.392C62.3426 199.479 56.0937 194.358 48.6313 194.358C41.1718 194.358 34.9288 199.479 33.171 206.392C32.8498 207.659 32.6565 208.973 32.6565 210.339C32.6565 211.222 32.7487 212.081 32.8855 212.929C33.0313 213.809 33.2394 214.663 33.525 215.487C33.8373 216.415 34.2269 217.298 34.7028 218.14C35.0567 218.777 35.4612 219.371 35.8925 219.942C37.2101 221.688 38.8697 223.158 40.7852 224.243C43.1051 225.552 45.7819 226.31 48.6342 226.31C51.4925 226.31 54.1664 225.552 56.4922 224.243C58.4047 223.158 60.0643 221.688 61.3849 219.942C61.8191 219.371 62.2177 218.774 62.5716 218.14C63.0446 217.301 63.4372 216.415 63.7495 215.487C64.029 214.663 64.2432 213.809 64.3889 212.929C64.5257 212.081 64.615 211.222 64.615 210.339C64.612 208.973 64.4216 207.659 64.1004 206.392Z" fill="white"/>
<path d="M56.9857 210.445L54.7907 212.586L54.2137 213.148L54.1334 213.229L54.7907 217.068L55.4332 220.801L48.628 217.223L41.8318 220.801L42.4713 217.068L43.1286 213.229L43.0453 213.148L42.4713 212.586L40.2733 210.445L37.8195 208.047L37.6262 207.866L45.2314 206.762L45.4783 206.257L48.628 199.871L51.7837 206.257L52.0306 206.762L59.6328 207.866L59.4425 208.047L56.9857 210.445Z" fill="white"/>
</g>
</svg>
