<svg width="395" height="536" viewBox="0 0 395 536" fill="none" xmlns="http://www.w3.org/2000/svg">
<g opacity="0.8">
<path d="M229.532 535.839C218.993 534.679 207.283 533.519 196.744 532.359C153.416 527.72 112.431 514.962 77.3002 489.446C39.8276 461.611 18.7493 423.337 9.38116 378.104C5.86811 363.026 5.86811 347.949 5.86811 332.871C4.69709 313.154 5.86811 293.437 5.86811 273.721C5.86811 271.401 8.21014 269.081 9.38116 266.762C9.38116 269.081 11.7232 271.401 11.7232 273.721C11.7232 295.757 11.7232 318.953 11.7232 340.99C14.0652 416.378 55.0508 483.647 128.825 510.323C163.955 523.081 199.086 528.88 236.559 527.72C242.414 527.72 245.927 530.04 245.927 535.839C240.072 535.839 234.217 535.839 229.532 535.839Z" fill="#F3F3F3"/>
<path d="M229.532 535.839C218.993 534.679 207.283 533.519 196.744 532.359C153.416 527.72 112.431 514.962 77.3002 489.446C39.8276 461.611 18.7493 423.337 9.38116 378.104C5.86811 363.026 5.86811 347.949 5.86811 332.871C4.69709 313.154 5.86811 293.437 5.86811 273.721C5.86811 271.401 8.21014 269.081 9.38116 266.762C9.38116 269.081 11.7232 271.401 11.7232 273.721C11.7232 295.757 11.7232 318.953 11.7232 340.99C14.0652 416.378 55.0508 483.647 128.825 510.323C163.955 523.081 199.086 528.88 236.559 527.72C242.414 527.72 245.927 530.04 245.927 535.839C240.072 535.839 234.217 535.839 229.532 535.839Z" fill="url(#paint0_linear_1921_422)"/>
<path d="M229.532 535.839C218.993 534.679 207.283 533.519 196.744 532.359C153.416 527.72 112.431 514.962 77.3002 489.446C39.8276 461.611 18.7493 423.337 9.38116 378.104C5.86811 363.026 5.86811 347.949 5.86811 332.871C4.69709 313.154 5.86811 293.437 5.86811 273.721C5.86811 271.401 8.21014 269.081 9.38116 266.762C9.38116 269.081 11.7232 271.401 11.7232 273.721C11.7232 295.757 11.7232 318.953 11.7232 340.99C14.0652 416.378 55.0508 483.647 128.825 510.323C163.955 523.081 199.086 528.88 236.559 527.72C242.414 527.72 245.927 530.04 245.927 535.839C240.072 535.839 234.217 535.839 229.532 535.839Z" fill="url(#paint1_linear_1921_422)"/>
<path d="M242.381 506.83C210.763 506.83 180.317 503.351 151.041 494.072C113.569 482.474 83.1224 462.757 62.0441 430.282C43.3078 402.447 31.5977 371.132 31.5977 336.337C31.5977 315.461 31.5977 295.744 31.5977 274.867C31.5977 269.068 32.7687 267.908 38.6238 267.908C104.201 267.908 169.778 267.908 235.355 267.908C237.697 267.908 240.039 267.908 242.381 267.908C242.381 347.935 242.381 426.803 242.381 506.83Z" fill="#F3F3F3"/>
<path d="M242.381 506.83C210.763 506.83 180.317 503.351 151.041 494.072C113.569 482.474 83.1224 462.757 62.0441 430.282C43.3078 402.447 31.5977 371.132 31.5977 336.337C31.5977 315.461 31.5977 295.744 31.5977 274.867C31.5977 269.068 32.7687 267.908 38.6238 267.908C104.201 267.908 169.778 267.908 235.355 267.908C237.697 267.908 240.039 267.908 242.381 267.908C242.381 347.935 242.381 426.803 242.381 506.83Z" fill="url(#paint2_linear_1921_422)"/>
<path d="M242.381 506.83C210.763 506.83 180.317 503.351 151.041 494.072C113.569 482.474 83.1224 462.757 62.0441 430.282C43.3078 402.447 31.5977 371.132 31.5977 336.337C31.5977 315.461 31.5977 295.744 31.5977 274.867C31.5977 269.068 32.7687 267.908 38.6238 267.908C104.201 267.908 169.778 267.908 235.355 267.908C237.697 267.908 240.039 267.908 242.381 267.908C242.381 347.935 242.381 426.803 242.381 506.83Z" fill="url(#paint3_linear_1921_422)"/>
<path d="M31.5977 1.15981C37.4527 1.15981 40.9658 0 45.6499 0C108.885 0 172.12 0 235.355 0C242.381 0 244.723 2.31963 244.723 9.27851C244.723 84.6664 244.723 158.895 244.723 234.282C244.723 240.082 242.381 242.401 236.526 242.401C170.949 242.401 105.372 242.401 39.7948 242.401C35.1107 242.401 32.7687 241.241 32.7687 236.602C31.5977 157.735 31.5977 80.0272 31.5977 1.15981ZM172.12 163.534C186.172 163.534 201.395 163.534 216.618 163.534C222.474 163.534 224.816 161.214 224.816 155.415C224.816 134.538 224.816 114.822 224.816 93.945C224.816 86.9861 222.474 85.8262 216.618 85.8262C203.737 85.8262 190.856 85.8262 179.146 85.8262C176.804 85.8262 172.12 83.5066 172.12 81.187C170.949 76.5477 172.12 70.7487 172.12 63.7898C186.172 63.7898 200.224 63.7898 213.105 63.7898C217.789 63.7898 220.132 62.63 220.132 57.9907C220.132 53.3515 217.789 52.1916 213.105 52.1916C202.566 52.1916 192.027 52.1916 181.488 52.1916C169.778 52.1916 169.778 51.0318 172.12 39.4337C188.514 39.4337 203.737 39.4337 220.132 39.4337C221.303 27.8355 221.303 27.8355 211.934 27.8355C196.711 27.8355 181.488 27.8355 165.094 27.8355C153.384 27.8355 153.384 27.8355 153.384 39.4337C153.384 54.5113 153.384 69.5889 153.384 84.6664C145.186 86.9861 141.673 84.6664 142.844 76.5477C142.844 62.63 142.844 48.7122 142.844 34.7944C142.844 28.9954 141.673 27.8355 135.818 26.6757C128.792 26.6757 126.45 27.8355 126.45 35.9542C126.45 52.1916 126.45 68.429 126.45 83.5066C119.424 85.8262 117.082 83.5066 117.082 77.7076C117.082 63.7898 117.082 49.872 117.082 34.7944C117.082 30.1552 117.082 26.6757 110.056 26.6757C92.4906 26.6757 76.0963 26.6757 58.5311 26.6757C49.1629 26.6757 47.9919 27.8355 51.505 38.2739C67.8992 38.2739 84.2935 38.2739 100.688 38.2739C100.688 49.872 100.688 49.872 90.1485 49.872C79.6094 49.872 69.0702 49.872 58.5311 49.872C52.676 49.872 50.3339 53.3515 52.676 57.9907C53.847 62.63 58.5311 64.9496 60.8731 64.9496C74.9253 64.9496 87.8065 64.9496 101.859 64.9496C101.859 67.2692 101.859 68.429 101.859 69.5889C101.859 86.9861 101.859 86.9861 85.4645 86.9861C74.9253 86.9861 64.3862 86.9861 52.676 86.9861C52.676 111.342 52.676 135.698 52.676 158.895C52.676 160.054 57.36 163.534 59.7021 163.534C71.4123 163.534 83.1224 163.534 94.8326 163.534C99.5167 163.534 101.859 164.694 101.859 169.333C101.859 173.972 100.688 176.292 94.8326 176.292C84.2935 176.292 72.5833 176.292 62.0441 176.292C51.505 176.292 51.505 177.452 55.018 189.05C70.2412 189.05 86.6355 189.05 101.859 189.05C103.03 200.648 103.03 201.808 91.3196 201.808C80.7804 201.808 69.0702 201.808 58.5311 201.808C55.018 201.808 51.505 201.808 51.505 207.607C51.505 213.406 55.018 213.406 58.5311 213.406C76.0963 213.406 92.4906 213.406 110.056 213.406C115.911 213.406 118.253 211.086 118.253 205.287C118.253 193.689 118.253 182.091 118.253 170.493C118.253 163.534 121.766 163.534 127.621 164.694C127.621 178.611 127.621 191.369 127.621 204.127C127.621 209.926 128.792 212.246 134.647 212.246C136.989 212.246 139.331 212.246 142.844 212.246C142.844 198.328 142.844 185.57 142.844 172.812C142.844 163.534 144.015 163.534 153.384 165.853C153.384 178.611 153.384 192.529 153.384 205.287C153.384 212.246 155.726 214.566 161.581 214.566C177.975 214.566 194.369 214.566 210.763 214.566C215.447 214.566 220.132 214.566 220.132 207.607C220.132 200.648 215.447 201.808 210.763 201.808C197.882 201.808 183.83 201.808 169.778 201.808C169.778 197.168 169.778 193.689 169.778 189.05C173.291 189.05 176.804 189.05 179.146 189.05C189.685 189.05 199.053 189.05 209.592 189.05C213.105 189.05 217.789 189.05 217.789 183.251C217.789 177.452 214.276 177.452 209.592 177.452C200.224 177.452 189.685 177.452 180.317 177.452C169.778 178.611 168.607 176.292 172.12 163.534Z" fill="#F3F3F3"/>
<path d="M31.5977 1.15981C37.4527 1.15981 40.9658 0 45.6499 0C108.885 0 172.12 0 235.355 0C242.381 0 244.723 2.31963 244.723 9.27851C244.723 84.6664 244.723 158.895 244.723 234.282C244.723 240.082 242.381 242.401 236.526 242.401C170.949 242.401 105.372 242.401 39.7948 242.401C35.1107 242.401 32.7687 241.241 32.7687 236.602C31.5977 157.735 31.5977 80.0272 31.5977 1.15981ZM172.12 163.534C186.172 163.534 201.395 163.534 216.618 163.534C222.474 163.534 224.816 161.214 224.816 155.415C224.816 134.538 224.816 114.822 224.816 93.945C224.816 86.9861 222.474 85.8262 216.618 85.8262C203.737 85.8262 190.856 85.8262 179.146 85.8262C176.804 85.8262 172.12 83.5066 172.12 81.187C170.949 76.5477 172.12 70.7487 172.12 63.7898C186.172 63.7898 200.224 63.7898 213.105 63.7898C217.789 63.7898 220.132 62.63 220.132 57.9907C220.132 53.3515 217.789 52.1916 213.105 52.1916C202.566 52.1916 192.027 52.1916 181.488 52.1916C169.778 52.1916 169.778 51.0318 172.12 39.4337C188.514 39.4337 203.737 39.4337 220.132 39.4337C221.303 27.8355 221.303 27.8355 211.934 27.8355C196.711 27.8355 181.488 27.8355 165.094 27.8355C153.384 27.8355 153.384 27.8355 153.384 39.4337C153.384 54.5113 153.384 69.5889 153.384 84.6664C145.186 86.9861 141.673 84.6664 142.844 76.5477C142.844 62.63 142.844 48.7122 142.844 34.7944C142.844 28.9954 141.673 27.8355 135.818 26.6757C128.792 26.6757 126.45 27.8355 126.45 35.9542C126.45 52.1916 126.45 68.429 126.45 83.5066C119.424 85.8262 117.082 83.5066 117.082 77.7076C117.082 63.7898 117.082 49.872 117.082 34.7944C117.082 30.1552 117.082 26.6757 110.056 26.6757C92.4906 26.6757 76.0963 26.6757 58.5311 26.6757C49.1629 26.6757 47.9919 27.8355 51.505 38.2739C67.8992 38.2739 84.2935 38.2739 100.688 38.2739C100.688 49.872 100.688 49.872 90.1485 49.872C79.6094 49.872 69.0702 49.872 58.5311 49.872C52.676 49.872 50.3339 53.3515 52.676 57.9907C53.847 62.63 58.5311 64.9496 60.8731 64.9496C74.9253 64.9496 87.8065 64.9496 101.859 64.9496C101.859 67.2692 101.859 68.429 101.859 69.5889C101.859 86.9861 101.859 86.9861 85.4645 86.9861C74.9253 86.9861 64.3862 86.9861 52.676 86.9861C52.676 111.342 52.676 135.698 52.676 158.895C52.676 160.054 57.36 163.534 59.7021 163.534C71.4123 163.534 83.1224 163.534 94.8326 163.534C99.5167 163.534 101.859 164.694 101.859 169.333C101.859 173.972 100.688 176.292 94.8326 176.292C84.2935 176.292 72.5833 176.292 62.0441 176.292C51.505 176.292 51.505 177.452 55.018 189.05C70.2412 189.05 86.6355 189.05 101.859 189.05C103.03 200.648 103.03 201.808 91.3196 201.808C80.7804 201.808 69.0702 201.808 58.5311 201.808C55.018 201.808 51.505 201.808 51.505 207.607C51.505 213.406 55.018 213.406 58.5311 213.406C76.0963 213.406 92.4906 213.406 110.056 213.406C115.911 213.406 118.253 211.086 118.253 205.287C118.253 193.689 118.253 182.091 118.253 170.493C118.253 163.534 121.766 163.534 127.621 164.694C127.621 178.611 127.621 191.369 127.621 204.127C127.621 209.926 128.792 212.246 134.647 212.246C136.989 212.246 139.331 212.246 142.844 212.246C142.844 198.328 142.844 185.57 142.844 172.812C142.844 163.534 144.015 163.534 153.384 165.853C153.384 178.611 153.384 192.529 153.384 205.287C153.384 212.246 155.726 214.566 161.581 214.566C177.975 214.566 194.369 214.566 210.763 214.566C215.447 214.566 220.132 214.566 220.132 207.607C220.132 200.648 215.447 201.808 210.763 201.808C197.882 201.808 183.83 201.808 169.778 201.808C169.778 197.168 169.778 193.689 169.778 189.05C173.291 189.05 176.804 189.05 179.146 189.05C189.685 189.05 199.053 189.05 209.592 189.05C213.105 189.05 217.789 189.05 217.789 183.251C217.789 177.452 214.276 177.452 209.592 177.452C200.224 177.452 189.685 177.452 180.317 177.452C169.778 178.611 168.607 176.292 172.12 163.534Z" fill="url(#paint4_linear_1921_422)"/>
<path d="M31.5977 1.15981C37.4527 1.15981 40.9658 0 45.6499 0C108.885 0 172.12 0 235.355 0C242.381 0 244.723 2.31963 244.723 9.27851C244.723 84.6664 244.723 158.895 244.723 234.282C244.723 240.082 242.381 242.401 236.526 242.401C170.949 242.401 105.372 242.401 39.7948 242.401C35.1107 242.401 32.7687 241.241 32.7687 236.602C31.5977 157.735 31.5977 80.0272 31.5977 1.15981ZM172.12 163.534C186.172 163.534 201.395 163.534 216.618 163.534C222.474 163.534 224.816 161.214 224.816 155.415C224.816 134.538 224.816 114.822 224.816 93.945C224.816 86.9861 222.474 85.8262 216.618 85.8262C203.737 85.8262 190.856 85.8262 179.146 85.8262C176.804 85.8262 172.12 83.5066 172.12 81.187C170.949 76.5477 172.12 70.7487 172.12 63.7898C186.172 63.7898 200.224 63.7898 213.105 63.7898C217.789 63.7898 220.132 62.63 220.132 57.9907C220.132 53.3515 217.789 52.1916 213.105 52.1916C202.566 52.1916 192.027 52.1916 181.488 52.1916C169.778 52.1916 169.778 51.0318 172.12 39.4337C188.514 39.4337 203.737 39.4337 220.132 39.4337C221.303 27.8355 221.303 27.8355 211.934 27.8355C196.711 27.8355 181.488 27.8355 165.094 27.8355C153.384 27.8355 153.384 27.8355 153.384 39.4337C153.384 54.5113 153.384 69.5889 153.384 84.6664C145.186 86.9861 141.673 84.6664 142.844 76.5477C142.844 62.63 142.844 48.7122 142.844 34.7944C142.844 28.9954 141.673 27.8355 135.818 26.6757C128.792 26.6757 126.45 27.8355 126.45 35.9542C126.45 52.1916 126.45 68.429 126.45 83.5066C119.424 85.8262 117.082 83.5066 117.082 77.7076C117.082 63.7898 117.082 49.872 117.082 34.7944C117.082 30.1552 117.082 26.6757 110.056 26.6757C92.4906 26.6757 76.0963 26.6757 58.5311 26.6757C49.1629 26.6757 47.9919 27.8355 51.505 38.2739C67.8992 38.2739 84.2935 38.2739 100.688 38.2739C100.688 49.872 100.688 49.872 90.1485 49.872C79.6094 49.872 69.0702 49.872 58.5311 49.872C52.676 49.872 50.3339 53.3515 52.676 57.9907C53.847 62.63 58.5311 64.9496 60.8731 64.9496C74.9253 64.9496 87.8065 64.9496 101.859 64.9496C101.859 67.2692 101.859 68.429 101.859 69.5889C101.859 86.9861 101.859 86.9861 85.4645 86.9861C74.9253 86.9861 64.3862 86.9861 52.676 86.9861C52.676 111.342 52.676 135.698 52.676 158.895C52.676 160.054 57.36 163.534 59.7021 163.534C71.4123 163.534 83.1224 163.534 94.8326 163.534C99.5167 163.534 101.859 164.694 101.859 169.333C101.859 173.972 100.688 176.292 94.8326 176.292C84.2935 176.292 72.5833 176.292 62.0441 176.292C51.505 176.292 51.505 177.452 55.018 189.05C70.2412 189.05 86.6355 189.05 101.859 189.05C103.03 200.648 103.03 201.808 91.3196 201.808C80.7804 201.808 69.0702 201.808 58.5311 201.808C55.018 201.808 51.505 201.808 51.505 207.607C51.505 213.406 55.018 213.406 58.5311 213.406C76.0963 213.406 92.4906 213.406 110.056 213.406C115.911 213.406 118.253 211.086 118.253 205.287C118.253 193.689 118.253 182.091 118.253 170.493C118.253 163.534 121.766 163.534 127.621 164.694C127.621 178.611 127.621 191.369 127.621 204.127C127.621 209.926 128.792 212.246 134.647 212.246C136.989 212.246 139.331 212.246 142.844 212.246C142.844 198.328 142.844 185.57 142.844 172.812C142.844 163.534 144.015 163.534 153.384 165.853C153.384 178.611 153.384 192.529 153.384 205.287C153.384 212.246 155.726 214.566 161.581 214.566C177.975 214.566 194.369 214.566 210.763 214.566C215.447 214.566 220.132 214.566 220.132 207.607C220.132 200.648 215.447 201.808 210.763 201.808C197.882 201.808 183.83 201.808 169.778 201.808C169.778 197.168 169.778 193.689 169.778 189.05C173.291 189.05 176.804 189.05 179.146 189.05C189.685 189.05 199.053 189.05 209.592 189.05C213.105 189.05 217.789 189.05 217.789 183.251C217.789 177.452 214.276 177.452 209.592 177.452C200.224 177.452 189.685 177.452 180.317 177.452C169.778 178.611 168.607 176.292 172.12 163.534Z" fill="url(#paint5_linear_1921_422)"/>
<path d="M267.019 98.5879C309.175 98.5879 351.332 98.5879 393.489 98.5879C393.489 103.227 393.489 106.707 393.489 110.186C393.489 150.78 393.489 191.373 393.489 231.967C393.489 240.085 391.147 242.405 382.949 242.405C346.648 242.405 310.346 242.405 274.045 242.405C269.361 242.405 265.848 242.405 265.848 236.606C265.848 191.373 265.848 147.3 265.848 102.067C265.848 100.908 267.019 99.7477 267.019 98.5879Z" fill="#F3F3F3"/>
<path d="M267.019 98.5879C309.175 98.5879 351.332 98.5879 393.489 98.5879C393.489 103.227 393.489 106.707 393.489 110.186C393.489 150.78 393.489 191.373 393.489 231.967C393.489 240.085 391.147 242.405 382.949 242.405C346.648 242.405 310.346 242.405 274.045 242.405C269.361 242.405 265.848 242.405 265.848 236.606C265.848 191.373 265.848 147.3 265.848 102.067C265.848 100.908 267.019 99.7477 267.019 98.5879Z" fill="url(#paint6_linear_1921_422)"/>
<path d="M267.019 98.5879C309.175 98.5879 351.332 98.5879 393.489 98.5879C393.489 103.227 393.489 106.707 393.489 110.186C393.489 150.78 393.489 191.373 393.489 231.967C393.489 240.085 391.147 242.405 382.949 242.405C346.648 242.405 310.346 242.405 274.045 242.405C269.361 242.405 265.848 242.405 265.848 236.606C265.848 191.373 265.848 147.3 265.848 102.067C265.848 100.908 267.019 99.7477 267.019 98.5879Z" fill="url(#paint7_linear_1921_422)"/>
<path d="M267.027 411.759C267.027 364.206 267.027 317.814 267.027 269.102C309.184 269.102 350.17 269.102 392.326 269.102C404.036 356.088 359.538 412.919 267.027 411.759Z" fill="#F3F3F3"/>
<path d="M267.027 411.759C267.027 364.206 267.027 317.814 267.027 269.102C309.184 269.102 350.17 269.102 392.326 269.102C404.036 356.088 359.538 412.919 267.027 411.759Z" fill="url(#paint8_linear_1921_422)"/>
<path d="M267.027 411.759C267.027 364.206 267.027 317.814 267.027 269.102C309.184 269.102 350.17 269.102 392.326 269.102C404.036 356.088 359.538 412.919 267.027 411.759Z" fill="url(#paint9_linear_1921_422)"/>
<path d="M0 1.15973C14.0522 -1.1599 15.2232 -1.1599 15.2232 12.7579C15.2232 85.8262 15.2232 160.054 15.2232 233.123C15.2232 237.762 15.2232 242.401 8.19712 242.401C0 242.401 0 237.762 0 231.963C0 162.374 0 92.7851 0 23.1962C0 16.2373 0 9.27844 0 1.15973Z" fill="#F3F3F3"/>
<path d="M0 1.15973C14.0522 -1.1599 15.2232 -1.1599 15.2232 12.7579C15.2232 85.8262 15.2232 160.054 15.2232 233.123C15.2232 237.762 15.2232 242.401 8.19712 242.401C0 242.401 0 237.762 0 231.963C0 162.374 0 92.7851 0 23.1962C0 16.2373 0 9.27844 0 1.15973Z" fill="url(#paint10_linear_1921_422)"/>
<path d="M0 1.15973C14.0522 -1.1599 15.2232 -1.1599 15.2232 12.7579C15.2232 85.8262 15.2232 160.054 15.2232 233.123C15.2232 237.762 15.2232 242.401 8.19712 242.401C0 242.401 0 237.762 0 231.963C0 162.374 0 92.7851 0 23.1962C0 16.2373 0 9.27844 0 1.15973Z" fill="url(#paint11_linear_1921_422)"/>
<path d="M186.199 151.927C183.857 151.927 182.686 151.927 181.515 151.927C168.634 151.927 168.634 151.927 168.634 139.169C168.634 128.731 169.805 118.293 168.634 107.854C167.463 99.7357 170.976 97.416 179.173 97.416C181.515 97.416 183.857 97.416 186.199 97.416C186.199 117.133 186.199 134.53 186.199 151.927Z" fill="#F3F3F3"/>
<path d="M186.199 151.927C183.857 151.927 182.686 151.927 181.515 151.927C168.634 151.927 168.634 151.927 168.634 139.169C168.634 128.731 169.805 118.293 168.634 107.854C167.463 99.7357 170.976 97.416 179.173 97.416C181.515 97.416 183.857 97.416 186.199 97.416C186.199 117.133 186.199 134.53 186.199 151.927Z" fill="url(#paint12_linear_1921_422)"/>
<path d="M186.199 151.927C183.857 151.927 182.686 151.927 181.515 151.927C168.634 151.927 168.634 151.927 168.634 139.169C168.634 128.731 169.805 118.293 168.634 107.854C167.463 99.7357 170.976 97.416 179.173 97.416C181.515 97.416 183.857 97.416 186.199 97.416C186.199 117.133 186.199 134.53 186.199 151.927Z" fill="url(#paint13_linear_1921_422)"/>
<path d="M155.757 150.776C142.876 150.776 131.166 150.776 120.626 150.776C118.284 150.776 115.942 148.456 115.942 146.137C114.771 143.817 115.942 140.338 115.942 136.858C115.942 131.059 117.113 128.74 122.968 129.899C131.166 129.899 140.534 129.899 148.731 129.899C155.757 129.899 158.099 132.219 156.928 138.018C155.757 142.657 155.757 146.137 155.757 150.776Z" fill="#F3F3F3"/>
<path d="M155.757 150.776C142.876 150.776 131.166 150.776 120.626 150.776C118.284 150.776 115.942 148.456 115.942 146.137C114.771 143.817 115.942 140.338 115.942 136.858C115.942 131.059 117.113 128.74 122.968 129.899C131.166 129.899 140.534 129.899 148.731 129.899C155.757 129.899 158.099 132.219 156.928 138.018C155.757 142.657 155.757 146.137 155.757 150.776Z" fill="url(#paint14_linear_1921_422)"/>
<path d="M155.757 150.776C142.876 150.776 131.166 150.776 120.626 150.776C118.284 150.776 115.942 148.456 115.942 146.137C114.771 143.817 115.942 140.338 115.942 136.858C115.942 131.059 117.113 128.74 122.968 129.899C131.166 129.899 140.534 129.899 148.731 129.899C155.757 129.899 158.099 132.219 156.928 138.018C155.757 142.657 155.757 146.137 155.757 150.776Z" fill="url(#paint15_linear_1921_422)"/>
<path d="M155.74 99.7295C155.74 106.688 155.74 111.328 155.74 118.287C142.859 118.287 128.807 118.287 115.926 118.287C115.926 112.487 115.926 106.688 115.926 99.7295C128.807 99.7295 141.688 99.7295 155.74 99.7295Z" fill="#F3F3F3"/>
<path d="M155.74 99.7295C155.74 106.688 155.74 111.328 155.74 118.287C142.859 118.287 128.807 118.287 115.926 118.287C115.926 112.487 115.926 106.688 115.926 99.7295C128.807 99.7295 141.688 99.7295 155.74 99.7295Z" fill="url(#paint16_linear_1921_422)"/>
<path d="M155.74 99.7295C155.74 106.688 155.74 111.328 155.74 118.287C142.859 118.287 128.807 118.287 115.926 118.287C115.926 112.487 115.926 106.688 115.926 99.7295C128.807 99.7295 141.688 99.7295 155.74 99.7295Z" fill="url(#paint17_linear_1921_422)"/>
<path d="M213.126 98.5751C213.126 115.972 213.126 132.21 213.126 147.287C213.126 148.447 208.442 150.767 206.1 150.767C203.758 150.767 199.074 148.447 199.074 147.287C197.903 132.21 197.903 118.292 199.074 103.214C199.074 95.0957 207.271 99.7349 213.126 98.5751Z" fill="#F3F3F3"/>
<path d="M213.126 98.5751C213.126 115.972 213.126 132.21 213.126 147.287C213.126 148.447 208.442 150.767 206.1 150.767C203.758 150.767 199.074 148.447 199.074 147.287C197.903 132.21 197.903 118.292 199.074 103.214C199.074 95.0957 207.271 99.7349 213.126 98.5751Z" fill="url(#paint18_linear_1921_422)"/>
<path d="M213.126 98.5751C213.126 115.972 213.126 132.21 213.126 147.287C213.126 148.447 208.442 150.767 206.1 150.767C203.758 150.767 199.074 148.447 199.074 147.287C197.903 132.21 197.903 118.292 199.074 103.214C199.074 95.0957 207.271 99.7349 213.126 98.5751Z" fill="url(#paint19_linear_1921_422)"/>
<path d="M101.917 97.416C101.917 114.813 101.917 131.051 101.917 147.288C101.917 148.448 97.2332 151.927 96.0622 151.927C93.7201 151.927 89.0361 149.608 89.0361 147.288C89.0361 132.21 87.8651 118.293 89.0361 103.215C89.0361 93.9366 97.2332 99.7356 101.917 97.416Z" fill="#F3F3F3"/>
<path d="M101.917 97.416C101.917 114.813 101.917 131.051 101.917 147.288C101.917 148.448 97.2332 151.927 96.0622 151.927C93.7201 151.927 89.0361 149.608 89.0361 147.288C89.0361 132.21 87.8651 118.293 89.0361 103.215C89.0361 93.9366 97.2332 99.7356 101.917 97.416Z" fill="url(#paint20_linear_1921_422)"/>
<path d="M101.917 97.416C101.917 114.813 101.917 131.051 101.917 147.288C101.917 148.448 97.2332 151.927 96.0622 151.927C93.7201 151.927 89.0361 149.608 89.0361 147.288C89.0361 132.21 87.8651 118.293 89.0361 103.215C89.0361 93.9366 97.2332 99.7356 101.917 97.416Z" fill="url(#paint21_linear_1921_422)"/>
<path d="M64.4297 151.939C64.4297 134.542 64.4297 119.465 64.4297 103.227C64.4297 102.067 69.1138 98.5879 71.4558 98.5879C72.6268 98.5879 76.1399 102.067 77.3109 103.227C77.3109 117.145 77.3109 131.063 77.3109 144.98C76.1399 155.419 70.2848 150.78 64.4297 151.939Z" fill="#F3F3F3"/>
<path d="M64.4297 151.939C64.4297 134.542 64.4297 119.465 64.4297 103.227C64.4297 102.067 69.1138 98.5879 71.4558 98.5879C72.6268 98.5879 76.1399 102.067 77.3109 103.227C77.3109 117.145 77.3109 131.063 77.3109 144.98C76.1399 155.419 70.2848 150.78 64.4297 151.939Z" fill="url(#paint22_linear_1921_422)"/>
<path d="M64.4297 151.939C64.4297 134.542 64.4297 119.465 64.4297 103.227C64.4297 102.067 69.1138 98.5879 71.4558 98.5879C72.6268 98.5879 76.1399 102.067 77.3109 103.227C77.3109 117.145 77.3109 131.063 77.3109 144.98C76.1399 155.419 70.2848 150.78 64.4297 151.939Z" fill="url(#paint23_linear_1921_422)"/>
</g>
<defs>
<linearGradient id="paint0_linear_1921_422" x1="125.637" y1="266.762" x2="125.637" y2="535.839" gradientUnits="userSpaceOnUse">
<stop stop-color="white"/>
<stop offset="1" stop-color="white" stop-opacity="0"/>
</linearGradient>
<linearGradient id="paint1_linear_1921_422" x1="125.637" y1="266.762" x2="125.637" y2="535.839" gradientUnits="userSpaceOnUse">
<stop stop-color="white"/>
<stop offset="1" stop-color="white" stop-opacity="0"/>
</linearGradient>
<linearGradient id="paint2_linear_1921_422" x1="136.989" y1="267.908" x2="136.989" y2="506.83" gradientUnits="userSpaceOnUse">
<stop stop-color="white"/>
<stop offset="1" stop-color="white" stop-opacity="0"/>
</linearGradient>
<linearGradient id="paint3_linear_1921_422" x1="136.989" y1="267.908" x2="136.989" y2="506.83" gradientUnits="userSpaceOnUse">
<stop stop-color="white"/>
<stop offset="1" stop-color="white" stop-opacity="0"/>
</linearGradient>
<linearGradient id="paint4_linear_1921_422" x1="138.16" y1="0" x2="138.16" y2="242.401" gradientUnits="userSpaceOnUse">
<stop stop-color="white"/>
<stop offset="1" stop-color="white" stop-opacity="0"/>
</linearGradient>
<linearGradient id="paint5_linear_1921_422" x1="138.16" y1="0" x2="138.16" y2="242.401" gradientUnits="userSpaceOnUse">
<stop stop-color="white"/>
<stop offset="1" stop-color="white" stop-opacity="0"/>
</linearGradient>
<linearGradient id="paint6_linear_1921_422" x1="329.668" y1="98.5879" x2="329.668" y2="242.405" gradientUnits="userSpaceOnUse">
<stop stop-color="white"/>
<stop offset="1" stop-color="white" stop-opacity="0"/>
</linearGradient>
<linearGradient id="paint7_linear_1921_422" x1="329.668" y1="98.5879" x2="329.668" y2="242.405" gradientUnits="userSpaceOnUse">
<stop stop-color="white"/>
<stop offset="1" stop-color="white" stop-opacity="0"/>
</linearGradient>
<linearGradient id="paint8_linear_1921_422" x1="330.596" y1="269.102" x2="330.596" y2="411.776" gradientUnits="userSpaceOnUse">
<stop stop-color="white"/>
<stop offset="1" stop-color="white" stop-opacity="0"/>
</linearGradient>
<linearGradient id="paint9_linear_1921_422" x1="330.596" y1="269.102" x2="330.596" y2="411.776" gradientUnits="userSpaceOnUse">
<stop stop-color="white"/>
<stop offset="1" stop-color="white" stop-opacity="0"/>
</linearGradient>
<linearGradient id="paint10_linear_1921_422" x1="7.61161" y1="0.00976562" x2="7.61161" y2="242.401" gradientUnits="userSpaceOnUse">
<stop stop-color="white"/>
<stop offset="1" stop-color="white" stop-opacity="0"/>
</linearGradient>
<linearGradient id="paint11_linear_1921_422" x1="7.61161" y1="0.00976562" x2="7.61161" y2="242.401" gradientUnits="userSpaceOnUse">
<stop stop-color="white"/>
<stop offset="1" stop-color="white" stop-opacity="0"/>
</linearGradient>
<linearGradient id="paint12_linear_1921_422" x1="177.306" y1="97.416" x2="177.306" y2="151.927" gradientUnits="userSpaceOnUse">
<stop stop-color="white"/>
<stop offset="1" stop-color="white" stop-opacity="0"/>
</linearGradient>
<linearGradient id="paint13_linear_1921_422" x1="177.306" y1="97.416" x2="177.306" y2="151.927" gradientUnits="userSpaceOnUse">
<stop stop-color="white"/>
<stop offset="1" stop-color="white" stop-opacity="0"/>
</linearGradient>
<linearGradient id="paint14_linear_1921_422" x1="136.319" y1="129.609" x2="136.319" y2="150.776" gradientUnits="userSpaceOnUse">
<stop stop-color="white"/>
<stop offset="1" stop-color="white" stop-opacity="0"/>
</linearGradient>
<linearGradient id="paint15_linear_1921_422" x1="136.319" y1="129.609" x2="136.319" y2="150.776" gradientUnits="userSpaceOnUse">
<stop stop-color="white"/>
<stop offset="1" stop-color="white" stop-opacity="0"/>
</linearGradient>
<linearGradient id="paint16_linear_1921_422" x1="135.833" y1="99.7295" x2="135.833" y2="118.287" gradientUnits="userSpaceOnUse">
<stop stop-color="white"/>
<stop offset="1" stop-color="white" stop-opacity="0"/>
</linearGradient>
<linearGradient id="paint17_linear_1921_422" x1="135.833" y1="99.7295" x2="135.833" y2="118.287" gradientUnits="userSpaceOnUse">
<stop stop-color="white"/>
<stop offset="1" stop-color="white" stop-opacity="0"/>
</linearGradient>
<linearGradient id="paint18_linear_1921_422" x1="205.661" y1="98.2852" x2="205.661" y2="150.767" gradientUnits="userSpaceOnUse">
<stop stop-color="white"/>
<stop offset="1" stop-color="white" stop-opacity="0"/>
</linearGradient>
<linearGradient id="paint19_linear_1921_422" x1="205.661" y1="98.2852" x2="205.661" y2="150.767" gradientUnits="userSpaceOnUse">
<stop stop-color="white"/>
<stop offset="1" stop-color="white" stop-opacity="0"/>
</linearGradient>
<linearGradient id="paint20_linear_1921_422" x1="95.2164" y1="97.416" x2="95.2164" y2="151.927" gradientUnits="userSpaceOnUse">
<stop stop-color="white"/>
<stop offset="1" stop-color="white" stop-opacity="0"/>
</linearGradient>
<linearGradient id="paint21_linear_1921_422" x1="95.2164" y1="97.416" x2="95.2164" y2="151.927" gradientUnits="userSpaceOnUse">
<stop stop-color="white"/>
<stop offset="1" stop-color="white" stop-opacity="0"/>
</linearGradient>
<linearGradient id="paint22_linear_1921_422" x1="70.8703" y1="98.5879" x2="70.8703" y2="152" gradientUnits="userSpaceOnUse">
<stop stop-color="white"/>
<stop offset="1" stop-color="white" stop-opacity="0"/>
</linearGradient>
<linearGradient id="paint23_linear_1921_422" x1="70.8703" y1="98.5879" x2="70.8703" y2="152" gradientUnits="userSpaceOnUse">
<stop stop-color="white"/>
<stop offset="1" stop-color="white" stop-opacity="0"/>
</linearGradient>
</defs>
</svg>
