<svg width="154" height="98" viewBox="0 0 154 98" fill="none" xmlns="http://www.w3.org/2000/svg">
<g style="mix-blend-mode:multiply">
<path d="M24.0625 98C15.0792 98 8.76945 95.9311 5.13333 91.7933C1.71111 87.4378 0 82.8644 0 78.0733C0 76.1133 0.213889 73.9355 0.641668 71.54C1.06945 68.9267 1.49722 66.4222 1.925 64.0267C2.78056 59.2355 4.49167 54.0089 7.05833 48.3467C9.83889 42.4667 13.1542 36.6956 17.0042 31.0333C21.0681 25.3711 25.6667 19.9267 30.8 14.7C35.9333 9.25555 41.3875 4.35555 47.1625 0H78.925C69.9417 6.96889 62.4556 13.72 56.4667 20.2533C50.4778 26.7867 45.2375 34.1911 40.7458 42.4667C46.7347 43.7733 50.9056 46.1689 53.2583 49.6533C55.825 53.1378 57.1083 56.7311 57.1083 60.4333C57.1083 62.1756 56.7875 64.4622 56.1458 67.2933C55.7181 69.9067 55.2903 72.4111 54.8625 74.8067C53.5792 81.34 50.3708 86.8933 45.2375 91.4667C40.1042 95.8222 33.0458 98 24.0625 98ZM99.1375 98C90.1542 98 83.8444 95.9311 80.2083 91.7933C76.7861 87.4378 75.075 82.8644 75.075 78.0733C75.075 76.1133 75.2889 73.9355 75.7167 71.54C76.1444 68.9267 76.5722 66.4222 77 64.0267C77.8556 59.2355 79.5667 54.0089 82.1333 48.3467C84.9139 42.4667 88.2292 36.6956 92.0792 31.0333C96.1431 25.3711 100.742 19.9267 105.875 14.7C111.008 9.25555 116.463 4.35555 122.237 0H154C145.017 6.96889 137.531 13.72 131.542 20.2533C125.553 26.7867 120.312 34.1911 115.821 42.4667C121.81 43.7733 125.981 46.1689 128.333 49.6533C130.9 53.1378 132.183 56.7311 132.183 60.4333C132.183 62.1756 131.863 64.4622 131.221 67.2933C130.793 69.9067 130.365 72.4111 129.938 74.8067C128.654 81.34 125.446 86.8933 120.312 91.4667C115.179 95.8222 108.121 98 99.1375 98Z" fill="url(#paint0_linear_1919_429)"/>
</g>
<defs>
<linearGradient id="paint0_linear_1919_429" x1="77" y1="0" x2="77" y2="98" gradientUnits="userSpaceOnUse">
<stop stop-color="#E5E5E5"/>
<stop offset="1" stop-color="#F6F6F6"/>
</linearGradient>
</defs>
</svg>
