<svg width="132" height="115" viewBox="0 0 132 115" fill="none" xmlns="http://www.w3.org/2000/svg">
<g opacity="0.1">
<path d="M123.929 83.6859C123.137 82.8935 122.317 82.1832 121.443 81.5275C117.536 85.1885 112.317 87.4289 106.553 87.4289C100.514 87.4289 95.0229 84.97 91.0613 80.981L88.3292 82.1285L76.5536 86.5546L61.117 66.7193C59.7783 64.998 57.8384 63.9052 55.6527 63.6319C53.467 63.3587 51.3359 63.9598 49.6147 65.2986C46.7186 67.5389 45.6804 71.3639 47.0465 74.8064C47.347 75.5714 47.7295 76.2271 48.1667 76.7735L67.2917 101.39C68.849 103.357 71.2806 104.559 73.7668 104.559C74.6684 104.559 75.5974 104.396 76.6356 104.04L81.9633 102.019V112.018C81.9633 113.521 83.1927 114.75 84.6954 114.75H128.41C129.912 114.75 131.142 113.521 131.142 112.018V101.09C131.142 94.5325 128.601 88.3578 123.929 83.6859Z" fill="black"/>
<path d="M106.553 81.9644C115.607 81.9644 122.946 74.6251 122.946 65.5716C122.946 56.518 115.607 49.1787 106.553 49.1787C97.4995 49.1787 90.1602 56.518 90.1602 65.5716C90.1602 74.6251 97.4995 81.9644 106.553 81.9644Z" fill="black"/>
<path d="M98.3571 0H5.46428C3.96161 0 2.73214 1.22946 2.73214 2.73214V71.0357C1.22946 71.0357 0 72.2652 0 73.7678V84.6964C0 86.1991 1.22946 87.4285 2.73214 87.4285H49.5337L43.8509 80.1337C43.1132 79.2048 42.4575 78.0573 41.9657 76.8005C40.7909 73.8498 40.7089 70.7078 41.5559 67.8391L28.7968 49.5884C27.54 47.7852 27.0755 45.6268 27.458 43.4684C27.8405 41.31 29.0154 39.4248 30.8186 38.168C32.212 37.2118 33.8239 36.6927 35.5178 36.6927C38.1953 36.6927 40.7089 38.0041 42.2389 40.1898L54.7521 58.1127C55.2712 58.1127 55.7903 58.14 56.3368 58.2219C59.9705 58.6591 63.1944 60.4896 65.4348 63.3584L78.0846 79.6146L84.0407 77.8934L86.4177 77.0191L87.6471 76.5C85.7893 73.276 84.6964 69.5603 84.6964 65.5714C84.6964 55.4078 91.6907 46.8562 101.089 44.4246V2.73214C101.089 1.22946 99.8598 0 98.3571 0ZM81.9643 30.0536H21.8571C20.3545 30.0536 19.125 28.8241 19.125 27.3214C19.125 25.8187 20.3545 24.5893 21.8571 24.5893H81.9643C83.4669 24.5893 84.6964 25.8187 84.6964 27.3214C84.6964 28.8241 83.4669 30.0536 81.9643 30.0536ZM81.9643 16.3929H21.8571C20.3545 16.3929 19.125 15.1634 19.125 13.6607C19.125 12.158 20.3545 10.9286 21.8571 10.9286H81.9643C83.4669 10.9286 84.6964 12.158 84.6964 13.6607C84.6964 15.1634 83.4669 16.3929 81.9643 16.3929Z" fill="black"/>
<path d="M51.2801 70.1878C50.4058 70.1878 49.5588 69.778 49.0397 69.013L33.2753 46.4455C32.401 45.216 32.7015 43.4948 33.9583 42.6478C35.1878 41.7735 36.909 42.0741 37.756 43.3308L53.5204 65.8983C54.3947 67.1278 54.0942 68.849 52.8374 69.696C52.3729 70.0239 51.8265 70.1878 51.2801 70.1878Z" fill="black"/>
</g>
</svg>
