<svg width="111" height="111" viewBox="0 0 111 111" fill="none" xmlns="http://www.w3.org/2000/svg">
<g opacity="0.1">
<path d="M0 11.0938V83.2037C0 89.2129 5.08467 94.2976 11.0938 94.2976H55.9314C48.9977 87.3639 46.6865 77.6568 48.9977 68.8742H11.0938C9.7071 68.8742 8.78262 67.9497 8.78262 66.563C8.78262 65.1763 9.7071 64.2518 11.0938 64.2518H50.3845C51.7712 61.0161 53.6202 58.2426 55.9314 55.4692C61.0161 50.3845 67.9497 47.611 75.3456 47.611C75.3456 47.611 75.8078 47.611 76.2701 47.611V10.6316C75.8078 5.08467 71.1854 0 64.714 0H11.0938C5.08467 0 0 5.08467 0 11.0938ZM11.0938 12.0183H64.714C66.1007 12.0183 67.0252 12.9428 67.0252 14.3295C67.0252 15.7163 66.1007 16.6407 64.714 16.6407H11.0938C9.7071 16.6407 8.78262 15.7163 8.78262 14.3295C8.78262 12.9428 9.7071 12.0183 11.0938 12.0183ZM11.0938 25.4234H37.9039C39.2906 25.4234 40.2151 26.3478 40.2151 27.7346C40.2151 29.1213 39.2906 30.0458 37.9039 30.0458H11.0938C9.7071 30.0458 8.78262 29.1213 8.78262 27.7346C8.78262 26.3478 9.7071 25.4234 11.0938 25.4234ZM11.0938 38.3662H64.714C66.1007 38.3662 67.0252 39.2906 67.0252 40.6774C67.0252 42.0641 66.1007 42.9886 64.714 42.9886H11.0938C9.7071 42.9886 8.78262 42.0641 8.78262 40.6774C8.78262 39.2906 9.7071 38.3662 11.0938 38.3662ZM11.0938 51.309H37.9039C39.2906 51.309 40.2151 52.2335 40.2151 53.6202C40.2151 55.0069 39.2906 55.9314 37.9039 55.9314H11.0938C9.7071 55.9314 8.78262 55.0069 8.78262 53.6202C8.78262 52.6957 9.7071 51.309 11.0938 51.309ZM11.0938 77.6568H37.9039C39.2906 77.6568 40.2151 78.5813 40.2151 79.968C40.2151 81.3548 39.2906 82.2792 37.9039 82.2792H11.0938C9.7071 82.2792 8.78262 81.3548 8.78262 79.968C8.78262 78.5813 9.7071 77.6568 11.0938 77.6568Z" fill="black"/>
<path d="M89.2148 98.4584L99.8464 109.09C102.62 111.863 106.78 111.401 109.091 109.09C111.402 106.779 111.402 102.619 109.091 99.8452L98.4596 89.2136C97.5351 88.2891 96.1484 88.2891 95.2239 89.2136L93.8372 90.6003L92.9127 89.6758C100.771 79.9687 99.3841 67.0259 91.526 59.1678C82.7434 50.3852 67.9516 50.3852 59.169 59.1678C50.3864 67.9504 50.3864 82.2799 59.169 91.5248C67.0271 99.3829 80.4322 100.77 89.677 92.9115L90.6015 93.836L89.2148 95.2227C88.2903 96.1472 88.2903 97.5339 89.2148 98.4584ZM86.9036 86.9023C80.4322 93.3737 69.8006 93.3737 63.3292 86.9023C56.8578 80.4309 56.8578 69.7994 63.3292 63.328C69.8006 56.8566 80.4322 56.8566 86.9036 63.328C93.375 70.2616 93.375 80.4309 86.9036 86.9023Z" fill="black"/>
</g>
</svg>
