<svg width="132" height="101" viewBox="0 0 132 101" fill="none" xmlns="http://www.w3.org/2000/svg">
<g opacity="0.1">
<path d="M114.462 65.4222C119.766 62.3047 123.386 56.6163 123.386 50.0119C123.386 40.1422 115.348 32.0898 105.464 32.0898C95.5942 32.0898 87.5566 40.1422 87.5566 50.0119C87.5566 56.6163 91.1617 62.3343 96.4807 65.4222C90.1275 67.7567 84.9119 72.5142 82.0012 78.7788C79.8293 77.0206 77.3619 75.6317 74.7024 74.6566C79.9918 71.5391 83.6264 65.8211 83.6264 59.2463C83.6264 49.347 75.5741 41.3242 65.7044 41.3242C55.8199 41.3242 47.7823 49.347 47.7823 59.2463C47.7823 65.8211 51.3874 71.5391 56.7064 74.6566C54.0469 75.6317 51.5795 77.0206 49.4076 78.7788C46.4821 72.5142 41.2666 67.7567 34.9133 65.4222C40.2323 62.3343 43.8522 56.6163 43.8522 50.0119C43.8522 40.1422 35.8146 32.0898 25.9301 32.0898C16.0456 32.0898 8.02282 40.1422 8.02282 50.0119C8.02282 56.6163 11.6427 62.3047 16.9469 65.4222C7.06245 69.0864 0 78.572 0 89.7123C0 90.8648 0.916049 91.766 2.05372 91.766H40.7938C40.1289 94.0414 39.7595 96.4645 39.7595 98.9467C39.7595 100.07 40.6903 101 41.828 101H89.6103C90.7332 101 91.664 100.07 91.664 98.9467C91.664 96.4645 91.2947 94.0414 90.6446 91.766H129.385C130.508 91.766 131.438 90.8648 131.438 89.7123C131.409 78.572 124.346 69.0864 114.462 65.4222ZM51.8898 59.2463C51.8898 51.6224 58.0805 45.4169 65.7044 45.4169C73.3283 45.4169 79.519 51.6224 79.519 59.2463C79.519 66.7224 73.5204 72.8097 66.0738 73.0166C65.9556 73.0166 65.8374 73.0166 65.7192 73.0166C65.601 73.0166 65.468 73.0166 65.3498 73.0166C57.8884 72.8097 51.8898 66.7224 51.8898 59.2463ZM43.9556 96.9077C44.9899 85.9004 54.1947 77.2865 65.4089 77.1388C65.5123 77.1388 65.601 77.1683 65.7044 77.1683C65.8078 77.1683 65.8965 77.1388 65.9999 77.1388C77.2141 77.2865 86.4189 85.9151 87.4532 96.9077H43.9556Z" fill="black"/>
<path d="M43.2014 27.2185C43.423 27.2185 43.7185 27.2776 43.9845 27.2776V34.1775C43.9845 35.3004 44.9005 36.2313 46.0382 36.2313H65.7037H85.3692C86.5069 36.2313 87.4229 35.3004 87.4229 34.1775V27.2776C87.9105 27.2481 88.1912 27.2185 88.2208 27.2185C89.3141 27.1594 90.1563 26.2581 90.1563 25.1648V2.17491C90.1563 1.11111 89.3437 0.209838 88.2799 0.121188C77.1395 -0.839186 68.836 4.15476 65.7037 6.41533C62.5714 4.15476 54.3122 -0.839186 43.1127 0.121188C42.0342 0.209838 41.2363 1.09634 41.2363 2.17491V25.1796C41.2363 26.2581 42.0785 27.1594 43.2014 27.2185ZM45.329 4.12521C56.4989 4.06611 64.2705 10.508 64.3444 10.5671C65.1275 11.232 66.2799 11.232 67.063 10.5671C67.1369 10.508 74.8937 4.08088 86.0636 4.12521V23.2588C81.7198 23.7316 71.333 25.3421 65.7037 30.9714C60.0597 25.3421 49.6728 23.7316 45.329 23.2736V4.12521Z" fill="black"/>
</g>
</svg>
