<svg width="135" height="127" viewBox="0 0 135 127" fill="none" xmlns="http://www.w3.org/2000/svg">
<g opacity="0.1">
<path d="M59.6814 72.8546H43.3812L41.8221 50.3177C46.3578 53.0108 51.6022 54.57 56.9884 54.57H68.0442C71.0207 54.57 73.2886 52.1604 73.2886 49.3255C73.2886 46.349 70.879 43.9394 68.0442 43.9394H56.9884C53.3031 43.9394 49.7596 42.8055 46.6413 40.8211L36.0107 33.8758C34.0263 32.4584 31.6167 31.6079 29.0654 31.6079H27.081C23.3957 31.6079 19.8522 33.3088 17.4426 36.0019C15.033 38.8367 13.8991 42.522 14.466 46.349L19.7105 80.2251C20.1357 83.3434 22.8288 85.6113 25.9471 85.6113H54.0118L57.6971 120.48C58.1223 123.74 60.8154 126.149 64.0754 126.149C64.3589 126.149 64.5006 126.149 64.7841 126.149C68.3276 125.724 70.879 122.606 70.4538 119.062L66.0598 78.3825C65.6346 75.2642 62.9415 72.8546 59.6814 72.8546Z" fill="black"/>
<path d="M45.3645 90.856H23.9616C19.1424 90.856 15.032 87.4542 14.3232 82.635L8.79535 46.7745C8.37012 44.5067 6.24401 42.9475 3.97615 43.231C1.70829 43.6562 0.00739956 45.7823 0.432623 48.0502L5.96052 83.7689C7.37793 92.6986 14.8902 99.2187 23.9616 99.2187H45.3645C47.7741 99.2187 49.6168 97.3761 49.6168 94.9665C49.6168 92.6986 47.7741 90.856 45.3645 90.856Z" fill="black"/>
<path d="M127.857 59.5312H56.2776C53.868 59.5312 52.0254 61.3739 52.0254 63.7835C52.0254 66.1931 53.868 68.0357 56.2776 68.0357H93.1303V118.496H84.6258C82.2162 118.496 80.3736 120.338 80.3736 122.748C80.3736 125.157 82.2162 127 84.6258 127H127.857C130.266 127 132.109 125.157 132.109 122.748V63.7835C132.109 61.3739 130.266 59.5312 127.857 59.5312Z" fill="black"/>
<path d="M27.7891 27.7812C35.4606 27.7812 41.6797 21.5622 41.6797 13.8906C41.6797 6.21904 35.4606 0 27.7891 0C20.1175 0 13.8984 6.21904 13.8984 13.8906C13.8984 21.5622 20.1175 27.7812 27.7891 27.7812Z" fill="black"/>
<path d="M81.935 43.5143C89.4473 43.5143 96.8178 45.0735 103.621 47.9083C103.763 48.05 103.905 48.05 104.188 48.05C104.33 48.05 104.614 48.05 104.755 47.9083C108.157 46.4909 111.842 45.357 115.386 44.5065L119.355 38.6951C114.677 39.1204 110 40.1125 105.606 41.8134V16.3C110.85 14.1739 116.378 13.04 121.906 12.8983V35.0099L127.576 26.5054C127.576 26.3637 127.717 26.3637 127.717 26.3637V15.1661C127.717 14.4574 127.15 13.8905 126.442 13.8905C125.875 13.8905 125.308 13.8905 124.599 13.8905H124.457V11.6226C124.457 10.9139 123.89 10.3469 123.182 10.3469C116.662 10.3469 110.283 11.6226 104.188 14.1739C98.0935 11.6226 91.7151 10.3469 85.195 10.3469C84.4863 10.3469 83.7776 10.9139 83.7776 11.6226V13.8905H83.6359C83.0689 13.8905 82.502 13.8905 81.7932 13.8905C81.0845 13.8905 80.5176 14.4574 80.5176 15.1661V42.2387C80.5176 42.9474 81.0845 43.5143 81.935 43.5143ZM86.4707 12.8983C91.9986 13.04 97.5265 14.1739 102.771 16.3V41.8134C97.3848 39.8291 91.9986 38.6951 86.4707 38.5534V12.8983Z" fill="black"/>
<path d="M99.3686 18.8517C96.392 18.0012 93.4155 17.4343 90.4389 17.009C89.7302 17.009 89.0215 17.4343 89.0215 18.143C89.0215 18.5682 89.0215 18.8517 89.305 19.1351C89.5885 19.4186 89.8719 19.5604 90.1554 19.5604C92.9902 19.8439 95.8251 20.4108 98.6599 21.2613C98.8016 21.2613 98.9434 21.2613 99.0851 21.2613C99.6521 21.2613 100.219 20.836 100.361 20.2691C100.503 19.8439 100.077 18.9934 99.3686 18.8517Z" fill="black"/>
<path d="M99.3686 23.9548C96.392 23.1044 93.4155 22.5374 90.4389 22.1122C89.5884 21.9705 89.0215 22.5374 89.0215 23.2461C89.0215 23.6714 89.0215 23.9548 89.305 24.2383C89.5885 24.5218 89.8719 24.6635 90.1554 24.6635C92.9902 24.947 95.8251 25.514 98.6599 26.3644C98.8016 26.3644 98.9434 26.3644 99.0851 26.3644C99.6521 26.3644 100.219 25.9392 100.361 25.3722C100.503 24.947 100.077 24.2383 99.3686 23.9548Z" fill="black"/>
<path d="M99.3686 29.0572C96.392 28.2068 93.4155 27.6398 90.4389 27.2146C89.7302 27.2146 89.0215 27.6398 89.0215 28.3485C89.0215 28.7738 89.0215 29.0572 89.305 29.3407C89.5885 29.6242 89.8719 29.7659 90.1554 29.7659C92.9902 30.0494 95.8251 30.6164 98.6599 31.4668C98.8016 31.4668 98.9434 31.4668 99.0851 31.4668C99.6521 31.4668 100.219 31.0416 100.361 30.4746C100.503 30.0494 100.077 29.3407 99.3686 29.0572Z" fill="black"/>
<path d="M99.3686 34.1589C96.392 33.3085 93.4155 32.7415 90.4389 32.3163C89.5884 32.1746 89.0215 32.7415 89.0215 33.4502C89.0215 33.8754 89.0215 34.1589 89.305 34.4424C89.5885 34.7259 89.8719 34.8676 90.1554 34.8676C92.9902 35.1511 95.8251 35.7181 98.6599 36.5685C98.8016 36.5685 98.9434 36.5685 99.0851 36.5685C99.6521 36.5685 100.219 36.1433 100.361 35.5763C100.503 35.1511 100.077 34.4424 99.3686 34.1589Z" fill="black"/>
<path d="M109.289 21.4024C109.43 21.4024 109.572 21.4024 109.714 21.4024C112.549 20.5519 115.383 19.985 118.218 19.7015C118.643 19.7015 118.927 19.418 119.069 19.2763C119.352 18.9928 119.352 18.7093 119.352 18.2841C119.21 17.5754 118.643 17.1501 117.935 17.1501H117.793C114.816 17.4336 111.84 18.1423 108.863 18.9928C108.58 19.1345 108.296 19.2763 108.013 19.7015C107.871 19.985 107.871 20.4102 107.871 20.6937C108.155 21.1189 108.722 21.4024 109.289 21.4024Z" fill="black"/>
<path d="M109.289 26.6467C109.431 26.6467 109.573 26.6467 109.715 26.6467C112.549 25.7962 115.384 25.2292 118.219 24.9458C118.644 24.9458 118.928 24.6623 119.069 24.5205C119.353 24.2371 119.353 23.9536 119.353 23.5284C119.211 22.8196 118.644 22.2527 117.936 22.3944C114.959 22.6779 111.841 23.3866 109.006 24.2371C108.722 24.3788 108.439 24.5205 108.155 24.9458C108.014 25.2292 108.014 25.6545 108.014 25.938C108.155 26.2214 108.722 26.6467 109.289 26.6467Z" fill="black"/>
<path d="M109.289 31.7502C109.431 31.7502 109.573 31.7502 109.715 31.7502C112.549 30.8997 115.384 30.3328 118.219 30.0493C118.644 30.0493 118.928 29.7658 119.069 29.6241C119.353 29.3406 119.353 29.0571 119.353 28.6319C119.211 27.9232 118.644 27.3562 117.936 27.4979C114.959 27.7814 111.841 28.4901 109.006 29.3406C108.722 29.4823 108.439 29.6241 108.155 30.0493C108.014 30.3328 108.014 30.758 108.014 31.0415C108.155 31.3249 108.722 31.7502 109.289 31.7502Z" fill="black"/>
<path d="M109.289 36.8525C109.431 36.8525 109.573 36.8525 109.715 36.8525C112.549 36.002 115.384 35.4351 118.219 35.1516C118.644 35.1516 118.928 34.8681 119.069 34.7264C119.353 34.4429 119.353 34.1594 119.353 33.7342C119.211 33.0255 118.644 32.4585 117.936 32.6002C114.959 32.8837 111.841 33.5924 109.006 34.4429C108.722 34.5846 108.439 34.7263 108.155 35.1516C108.014 35.4351 108.014 35.8603 108.014 36.1438C108.155 36.4272 108.722 36.8525 109.289 36.8525Z" fill="black"/>
<path d="M126.818 32.1909L118.887 43.9385L123.938 47.3492L131.87 35.6017L126.818 32.1909Z" fill="black"/>
<path d="M134.521 30.1911L130.977 27.7815C130.552 27.498 129.985 27.6398 129.702 28.065L128.143 30.3329L133.245 33.7346L134.804 31.4668C135.088 31.0416 134.946 30.4746 134.521 30.1911Z" fill="black"/>
<path d="M116.66 47.2002C116.519 47.342 116.519 47.4837 116.519 47.6255L116.377 51.5942C116.377 52.3029 117.086 52.7281 117.653 52.4447L121.338 50.8855C121.48 50.7438 121.621 50.7438 121.763 50.602L122.614 49.3263L117.511 45.9246L116.66 47.2002Z" fill="black"/>
</g>
</svg>
