<svg width="117" height="141" viewBox="0 0 117 141" fill="none" xmlns="http://www.w3.org/2000/svg">
<g opacity="0.1">
<path d="M58.5586 46.8164C71.4866 46.8164 81.9668 36.3362 81.9668 23.4082C81.9668 10.4802 71.4866 0 58.5586 0C45.6306 0 35.1504 10.4802 35.1504 23.4082C35.1504 36.3362 45.6306 46.8164 58.5586 46.8164Z" fill="black"/>
<path d="M11.8738 115.939H105.231L114.87 79.8275C115.033 79.2159 115.054 78.5749 114.93 77.9541C114.806 77.3332 114.541 76.7492 114.156 76.2469C113.771 75.7447 113.275 75.3378 112.707 75.0576C112.14 74.7774 111.515 74.6314 110.882 74.6309H6.23378C5.6005 74.631 4.97572 74.7766 4.40773 75.0567C3.83973 75.3367 3.34372 75.7436 2.95803 76.2459C2.57234 76.7481 2.30729 77.3324 2.18337 77.9534C2.05945 78.5744 2.07998 79.2156 2.24337 79.8275L11.8738 115.939Z" fill="black"/>
<path d="M0.726562 124.201V131.361C0.726563 133.918 1.74206 136.369 3.54966 138.177C5.35727 139.985 7.8089 141 10.3652 141H106.752C109.308 141 111.76 139.985 113.568 138.177C115.375 136.369 116.391 133.918 116.391 131.361V124.201H0.726562Z" fill="black"/>
<path d="M84.0102 42.2332C81.0687 46.2162 77.2335 49.4534 72.813 51.6841C68.3924 53.9149 63.5101 55.077 58.5586 55.077C53.6071 55.077 48.7247 53.9149 44.3042 51.6841C39.8837 49.4534 36.0485 46.2162 33.107 42.2332C25.7163 48.3446 20.772 56.9117 19.1777 66.3684H97.9395C96.3452 56.9117 91.4009 48.3446 84.0102 42.2332Z" fill="black"/>
</g>
</svg>
