<svg width="87" height="119" viewBox="0 0 87 119" fill="none" xmlns="http://www.w3.org/2000/svg">
<g opacity="0.1">
<path d="M43.5 0C37.8943 0 33.35 4.54429 33.35 10.15C33.35 15.7557 37.8943 20.3 43.5 20.3C49.1057 20.3 53.65 15.7557 53.65 10.15C53.65 4.54429 49.1057 0 43.5 0ZM17.4 14.5C14.9976 14.5 13.05 16.4476 13.05 18.85C13.05 21.2524 14.9976 23.2 17.4 23.2C19.8024 23.2 21.75 21.2524 21.75 18.85C21.75 16.4476 19.8024 14.5 17.4 14.5ZM10.4219 20.7078L4.12344 25.1937C3.74666 25.4607 3.43907 25.8138 3.22628 26.2237C3.01348 26.6335 2.90162 27.0882 2.9 27.55V55.1H8.7V29.0453L14.0469 25.1937C12.2923 24.2561 10.9526 22.6598 10.4219 20.7078ZM43.5 29C29.6588 29 20.3 34.5467 20.3 41.6875V55.1H66.7V41.6875C66.7 34.5467 57.3415 29 43.5 29ZM0 58V78.3H87V58H0ZM14.5 81.2V116.906C14.5 118.18 14.8878 118.9 16.7203 118.9H70.2797C72.1122 118.9 72.5 118.18 72.5 116.906V81.2H14.5Z" fill="black"/>
</g>
</svg>
