<svg width="163" height="111" viewBox="0 0 163 111" fill="none" xmlns="http://www.w3.org/2000/svg">
<g opacity="0.1">
<path d="M47.188 141.146H115.599C122.109 141.146 127.412 135.843 127.412 129.332V105.68H116.912V115.209H45.8995V21.8069H116.909V34.5911H127.409V12.2783C127.409 5.79349 122.106 0.517578 115.596 0.517578H47.185C40.6743 0.517578 35.3984 5.79349 35.3984 12.2783V129.332C35.3984 135.842 40.6743 141.145 47.185 141.145L47.188 141.146ZM75.434 123.137H87.3521C89.4257 123.137 91.0803 124.818 91.0803 126.865C91.0803 128.939 89.4268 130.594 87.3521 130.594H75.434C73.3604 130.594 71.7058 128.94 71.7058 126.865C71.707 124.818 73.3605 123.137 75.434 123.137ZM105.358 9.83829H105.391C106.841 9.83829 108.016 11.0142 108.016 12.4634C108.016 13.9127 106.841 15.0885 105.391 15.0885C103.941 15.0885 102.751 13.9127 102.751 12.4634C102.751 11.013 103.907 9.83829 105.358 9.83829H105.358ZM96.0594 9.83829H96.0922C97.5427 9.83829 98.7174 11.0142 98.7174 12.4634C98.7174 13.9127 97.5427 15.0885 96.0922 15.0885C94.6418 15.0885 93.4495 13.9127 93.4495 12.4634C93.4495 11.013 94.6089 9.83829 96.0594 9.83829H96.0594ZM74.0245 9.83829H88.7578V15.0887H74.0245V9.83829Z" fill="white"/>
<path d="M70.2266 92.5553C70.2266 96.8867 73.7447 100.431 78.102 100.431H149.349C153.339 100.431 156.594 97.1754 156.594 93.1855V60.2148H70.2272L70.2266 92.5553ZM130.709 75.99C132.048 75.99 133.282 76.5674 134.122 77.4862C134.988 76.5674 136.195 75.99 137.534 75.99C140.107 75.99 142.154 78.0636 142.154 80.6101C142.154 83.1824 140.107 85.2302 137.534 85.2302C136.195 85.2302 134.988 84.6528 134.122 83.7598C133.282 84.6529 132.048 85.2302 130.709 85.2302C128.163 85.2302 126.089 83.1825 126.089 80.6101C126.089 78.0636 128.163 75.99 130.709 75.99ZM97.9219 77.9849H101.492V83.2353H97.9219V77.9849ZM89.0479 77.9849H92.6178V83.2353H89.0479V77.9849ZM80.2022 77.9849H83.7462V83.2353H80.2022V77.9849Z" fill="white"/>
<path d="M70.2272 47.7133V54.9584H156.594V47.083C156.594 43.0932 153.338 39.8379 149.349 39.8379H78.102C73.7447 39.8379 70.2266 43.3561 70.2266 47.7133H70.2272Z" fill="white"/>
</g>
</svg>
